<?xml version="1.0" encoding="utf-8" ?>	<!-- Generator: Assembly 2.4 - http://assemblyapp.co -->	<svg version="1.1" xmlns="http://www.w3.org/2000/svg" xmlns:xlink="http://www.w3.org/1999/xlink" width="4096.00" height="4096.00" viewBox="0 0 4096.0 4096.0">		<g id="document" transform="scale(13.653333333333334 13.653333333333334) translate(150.0 65.0)">			<defs>				<filter id="ANQu7IeS" x="-3.74%" y="0.00%" width="122.18%" height="120.16%" filterUnits="objectBoundingBox">					<feOffset dx="3.74" dy="7.48" in="SourceAlpha" result="shadowOffsetOuter1" />					<feGaussianBlur stdDeviation="3.15" in="shadowOffsetOuter1" result="shadowBlurOuter1" />					<feFlood flood-color="#000000" flood-opacity="0.31" />					<feComposite in2="shadowBlurOuter1" operator="in" />					<feMerge>						<feMergeNode />						<feMergeNode in="SourceGraphic" />					</feMerge>				</filter>			</defs>			<path d="M917.324,1352.59 C917.758,1333.71 902.806,1318.05 883.927,1317.62 C865.048,1317.19 849.392,1332.14 848.958,1351.02 C848.524,1369.9 863.476,1385.55 882.355,1385.99 C901.234,1386.42 916.89,1371.47 917.324,1352.59 Z " fill="#000000" fill-opacity="0.42" filter="url(#ANQu7IeS)" />			<defs>				<filter id="2jnzbcgb" x="0.00%" y="0.00%" width="118.19%" height="118.19%" filterUnits="objectBoundingBox">					<feOffset dx="13.79" dy="13.79" in="SourceAlpha" result="shadowOffsetOuter1" />					<feGaussianBlur stdDeviation="6.89" in="shadowOffsetOuter1" result="shadowBlurOuter1" />					<feFlood flood-color="#000000" flood-opacity="0.30" />					<feComposite in2="shadowBlurOuter1" operator="in" />					<feMerge>						<feMergeNode />						<feMergeNode in="SourceGraphic" />					</feMerge>				</filter>			</defs>			<path d="M1510.88,1392.61 C1517.52,1351.84 1489.85,1313.41 1449.08,1306.77 C1408.31,1300.14 1369.88,1327.81 1363.24,1368.58 C1356.6,1409.35 1384.28,1447.78 1425.05,1454.41 C1465.82,1461.05 1504.25,1433.38 1510.88,1392.61 Z " fill="none" stroke-width="2.00" stroke="#000000" stroke-linecap="square" stroke-linejoin="miter" filter="url(#2jnzbcgb)" />			<defs>				<filter id="63fcooe1" x="0.00%" y="0.00%" width="118.19%" height="118.19%" filterUnits="objectBoundingBox">					<feOffset dx="13.79" dy="13.79" in="SourceAlpha" result="shadowOffsetOuter1" />					<feGaussianBlur stdDeviation="6.89" in="shadowOffsetOuter1" result="shadowBlurOuter1" />					<feFlood flood-color="#000000" flood-opacity="0.30" />					<feComposite in2="shadowBlurOuter1" operator="in" />					<feMerge>						<feMergeNode />						<feMergeNode in="SourceGraphic" />					</feMerge>				</filter>			</defs>			<path d="M1260.73,1290.18 C1267.37,1249.41 1239.7,1210.98 1198.93,1204.34 C1158.16,1197.71 1119.73,1225.38 1113.09,1266.15 C1106.46,1306.92 1134.13,1345.35 1174.9,1351.99 C1215.67,1358.62 1254.1,1330.95 1260.73,1290.18 Z " fill="none" stroke-width="1.95" stroke="#000000" stroke-linecap="square" stroke-linejoin="miter" filter="url(#63fcooe1)" />			<defs>				<filter id="6A3zrmKs" x="-3.72%" y="0.00%" width="122.06%" height="120.05%" filterUnits="objectBoundingBox">					<feOffset dx="20.10" dy="40.19" in="SourceAlpha" result="shadowOffsetOuter1" />					<feGaussianBlur stdDeviation="16.92" in="shadowOffsetOuter1" result="shadowBlurOuter1" />					<feFlood flood-color="#000000" flood-opacity="0.31" />					<feComposite in2="shadowBlurOuter1" operator="in" />					<feMerge>						<feMergeNode />						<feMergeNode in="SourceGraphic" />					</feMerge>				</filter>			</defs>			<path d="M574.817,1250.92 C578.475,1149.58 499.288,1064.46 397.947,1060.8 C296.606,1057.14 211.487,1136.33 207.829,1237.67 C204.17,1339.01 283.358,1424.13 384.699,1427.79 C486.039,1431.45 571.158,1352.26 574.817,1250.92 Z " fill="none" stroke-width="2.00" stroke="#000000" stroke-linecap="square" stroke-linejoin="miter" filter="url(#6A3zrmKs)" />			<defs>				<filter id="4jXkwYCp" x="-3.72%" y="0.00%" width="122.06%" height="120.05%" filterUnits="objectBoundingBox">					<feOffset dx="20.10" dy="40.19" in="SourceAlpha" result="shadowOffsetOuter1" />					<feGaussianBlur stdDeviation="16.92" in="shadowOffsetOuter1" result="shadowBlurOuter1" />					<feFlood flood-color="#000000" flood-opacity="0.31" />					<feComposite in2="shadowBlurOuter1" operator="in" />					<feMerge>						<feMergeNode />						<feMergeNode in="SourceGraphic" />					</feMerge>				</filter>			</defs>			<path d="M755.617,1251.88 C759.275,1150.54 680.088,1065.42 578.747,1061.76 C477.406,1058.1 392.287,1137.29 388.629,1238.63 C384.97,1339.97 464.158,1425.09 565.499,1428.75 C666.839,1432.41 751.958,1353.22 755.617,1251.88 Z " fill="none" stroke-width="2.00" stroke="#000000" stroke-linecap="square" stroke-linejoin="miter" filter="url(#4jXkwYCp)" />			<defs>				<filter id="NbvIBSHH" x="-3.72%" y="0.00%" width="122.06%" height="120.05%" filterUnits="objectBoundingBox">					<feOffset dx="20.10" dy="40.19" in="SourceAlpha" result="shadowOffsetOuter1" />					<feGaussianBlur stdDeviation="16.92" in="shadowOffsetOuter1" result="shadowBlurOuter1" />					<feFlood flood-color="#000000" flood-opacity="0.31" />					<feComposite in2="shadowBlurOuter1" operator="in" />					<feMerge>						<feMergeNode />						<feMergeNode in="SourceGraphic" />					</feMerge>				</filter>			</defs>			<path d="M664.558,1409.98 C668.217,1308.64 589.029,1223.52 487.688,1219.86 C386.347,1216.2 301.229,1295.39 297.57,1396.73 C293.912,1498.07 373.099,1583.19 474.44,1586.85 C575.781,1590.51 660.9,1511.32 664.558,1409.98 Z " fill="none" stroke-width="2.00" stroke="#000000" stroke-linecap="square" stroke-linejoin="miter" filter="url(#NbvIBSHH)" />			<defs>				<filter id="jQglz9TM" x="0.00%" y="0.00%" width="118.19%" height="118.19%" filterUnits="objectBoundingBox">					<feOffset dx="13.79" dy="13.79" in="SourceAlpha" result="shadowOffsetOuter1" />					<feGaussianBlur stdDeviation="6.89" in="shadowOffsetOuter1" result="shadowBlurOuter1" />					<feFlood flood-color="#000000" flood-opacity="0.30" />					<feComposite in2="shadowBlurOuter1" operator="in" />					<feMerge>						<feMergeNode />						<feMergeNode in="SourceGraphic" />					</feMerge>				</filter>			</defs>			<path d="M1185.96,1281.71 C1192.59,1240.94 1164.92,1202.51 1124.15,1195.87 C1083.38,1189.23 1044.95,1216.91 1038.31,1257.68 C1031.68,1298.45 1059.35,1336.88 1100.12,1343.51 C1140.89,1350.15 1179.32,1322.48 1185.96,1281.71 Z " fill="#71b7f3" fill-opacity="0.02" stroke-width="2.00" stroke="#000000" stroke-linecap="square" stroke-linejoin="miter" filter="url(#jQglz9TM)" />			<defs>				<filter id="nYOSLOOm" x="-3.69%" y="0.00%" width="121.88%" height="119.89%" filterUnits="objectBoundingBox">					<feOffset dx="8.19" dy="16.37" in="SourceAlpha" result="shadowOffsetOuter1" />					<feGaussianBlur stdDeviation="6.89" in="shadowOffsetOuter1" result="shadowBlurOuter1" />					<feFlood flood-color="#000000" flood-opacity="0.31" />					<feComposite in2="shadowBlurOuter1" operator="in" />					<feMerge>						<feMergeNode />						<feMergeNode in="SourceGraphic" />					</feMerge>				</filter>			</defs>			<path d="M1415.57,1513.98 C1422.21,1473.21 1394.54,1434.78 1353.77,1428.15 C1313,1421.51 1274.57,1449.18 1267.93,1489.95 C1261.3,1530.72 1288.97,1569.15 1329.74,1575.79 C1370.51,1582.43 1408.94,1554.75 1415.57,1513.98 Z " fill="#000000" fill-opacity="0.42" stroke-width="2.00" stroke="#000000" stroke-linecap="square" stroke-linejoin="miter" filter="url(#nYOSLOOm)" />			<defs>				<filter id="mnS24OSw" x="0.00%" y="0.00%" width="118.19%" height="118.19%" filterUnits="objectBoundingBox">					<feOffset dx="13.79" dy="13.79" in="SourceAlpha" result="shadowOffsetOuter1" />					<feGaussianBlur stdDeviation="6.89" in="shadowOffsetOuter1" result="shadowBlurOuter1" />					<feFlood flood-color="#000000" flood-opacity="0.30" />					<feComposite in2="shadowBlurOuter1" operator="in" />					<feMerge>						<feMergeNode />						<feMergeNode in="SourceGraphic" />					</feMerge>				</filter>			</defs>			<path d="M1000.27,1515.78 C1006.9,1475.01 979.232,1436.58 938.461,1429.95 C897.691,1423.31 859.261,1450.98 852.626,1491.75 C845.99,1532.52 873.661,1570.95 914.431,1577.59 C955.202,1584.22 993.632,1556.55 1000.27,1515.78 Z " fill="#3ba417" fill-opacity="0.00" stroke-width="2.00" stroke="#000000" stroke-linecap="square" stroke-linejoin="miter" filter="url(#mnS24OSw)" />			<defs>				<filter id="HGEUJ0se" x="-3.69%" y="0.00%" width="121.88%" height="119.89%" filterUnits="objectBoundingBox">					<feOffset dx="8.19" dy="16.37" in="SourceAlpha" result="shadowOffsetOuter1" />					<feGaussianBlur stdDeviation="6.89" in="shadowOffsetOuter1" result="shadowBlurOuter1" />					<feFlood flood-color="#000000" flood-opacity="0.31" />					<feComposite in2="shadowBlurOuter1" operator="in" />					<feMerge>						<feMergeNode />						<feMergeNode in="SourceGraphic" />					</feMerge>				</filter>			</defs>			<path d="M1248.49,1571.23 C1255.12,1530.46 1227.45,1492.03 1186.68,1485.4 C1145.91,1478.76 1107.48,1506.43 1100.84,1547.2 C1094.21,1587.97 1121.88,1626.4 1162.65,1633.04 C1203.42,1639.67 1241.85,1612 1248.49,1571.23 Z " fill="none" stroke-width="2.00" stroke="#000000" stroke-linecap="square" stroke-linejoin="miter" filter="url(#HGEUJ0se)" />			<g>				<path d="M392.109,1242.32 L482.177,1088.64 L570.176,1243.51 L392.109,1242.32 Z " fill="#6c5a7b" fill-opacity="0.01" stroke-width="4.81" stroke="#000000" stroke-linecap="square" stroke-linejoin="miter" />				<path d="M570.296,1248.34 L480.099,1401.94 L392.229,1247 L570.296,1248.34 Z " fill="#6c5a7b" fill-opacity="0.01" stroke-width="4.81" stroke="#000000" stroke-linecap="square" stroke-linejoin="miter" />			</g>			<path d="M572.44,1243.08 L628.237,1073.49 L484.429,967.838 L339.289,1072.57 L394.012,1242.52 L572.44,1243.08 Z " fill="#3162a6" fill-opacity="0.02" stroke-width="2.00" stroke="#000000" stroke-linecap="square" stroke-linejoin="miter" />			<path d="M-24.8629,2195.03 C-4.06641,2122.52 -45.9875,2046.88 -118.496,2026.08 C-191.005,2005.29 -266.644,2047.21 -287.44,2119.72 C-308.237,2192.22 -266.316,2267.86 -193.807,2288.66 C-121.298,2309.46 -45.6593,2267.54 -24.8629,2195.03 Z " fill="#f7c331" fill-opacity="1.00" />			<path d="M-168.707,2195.03 C-147.91,2122.52 -189.831,2046.88 -262.34,2026.08 C-334.849,2005.29 -410.487,2047.21 -431.284,2119.72 C-452.08,2192.22 -410.159,2267.86 -337.65,2288.66 C-265.142,2309.46 -189.503,2267.54 -168.707,2195.03 Z " fill="#3ba417" fill-opacity="1.00" />			<path d="M-233.805,2077.09 C-213.009,2004.58 -254.93,1928.94 -327.439,1908.14 C-399.947,1887.35 -475.586,1929.27 -496.383,2001.78 C-517.179,2074.29 -475.258,2149.93 -402.749,2170.72 C-330.241,2191.52 -254.602,2149.6 -233.805,2077.09 Z " fill="#f7882f" fill-opacity="1.00" />			<defs>				<filter id="ehp2XpD6" x="-21.57%" y="-19.88%" width="168.09%" height="166.40%" filterUnits="objectBoundingBox">					<feOffset dx="4.72" dy="9.44" in="SourceAlpha" result="shadowOffsetOuter1" />					<feGaussianBlur stdDeviation="32.47" in="shadowOffsetOuter1" result="shadowBlurOuter1" />					<feFlood flood-color="#4d4d4d" flood-opacity="1.00" />					<feComposite in2="shadowBlurOuter1" operator="in" />					<feMerge>						<feMergeNode />						<feMergeNode in="SourceGraphic" />					</feMerge>				</filter>			</defs>			<path d="M-1019.09,1344.96 C-998.29,1272.45 -1040.21,1196.82 -1112.72,1176.02 C-1185.23,1155.22 -1260.87,1197.14 -1281.66,1269.65 C-1302.46,1342.16 -1260.54,1417.8 -1188.03,1438.6 C-1115.52,1459.39 -1039.88,1417.47 -1019.09,1344.96 Z " fill="none" stroke-width="5.95" stroke="#0191b4" stroke-linecap="square" stroke-linejoin="miter" filter="url(#ehp2XpD6)" />			<defs>				<filter id="kezmJzI5" x="-3.72%" y="0.00%" width="122.01%" height="120.01%" filterUnits="objectBoundingBox">					<feOffset dx="14.95" dy="29.90" in="SourceAlpha" result="shadowOffsetOuter1" />					<feGaussianBlur stdDeviation="12.59" in="shadowOffsetOuter1" result="shadowBlurOuter1" />					<feFlood flood-color="#000000" flood-opacity="0.31" />					<feComposite in2="shadowBlurOuter1" operator="in" />					<feMerge>						<feMergeNode />						<feMergeNode in="SourceGraphic" />					</feMerge>				</filter>			</defs>			<path d="M-1548.61,3882.35 C-1527.81,3809.84 -1569.73,3734.2 -1642.24,3713.4 C-1714.75,3692.6 -1790.39,3734.53 -1811.19,3807.03 C-1831.98,3879.54 -1790.06,3955.18 -1717.55,3975.98 C-1645.05,3996.77 -1569.41,3954.85 -1548.61,3882.35 Z " fill="none" stroke-width="2.00" stroke="#000000" stroke-linecap="square" stroke-linejoin="miter" filter="url(#kezmJzI5)" />			<defs>				<filter id="QGNuHlXT" x="-21.57%" y="-19.88%" width="168.09%" height="166.40%" filterUnits="objectBoundingBox">					<feOffset dx="4.72" dy="9.44" in="SourceAlpha" result="shadowOffsetOuter1" />					<feGaussianBlur stdDeviation="32.47" in="shadowOffsetOuter1" result="shadowBlurOuter1" />					<feFlood flood-color="#4d4d4d" flood-opacity="1.00" />					<feComposite in2="shadowBlurOuter1" operator="in" />					<feMerge>						<feMergeNode />						<feMergeNode in="SourceGraphic" />					</feMerge>				</filter>			</defs>			<path d="M-1085.93,1457.33 C-1065.14,1384.83 -1107.06,1309.19 -1179.57,1288.39 C-1252.07,1267.59 -1327.71,1309.52 -1348.51,1382.02 C-1369.31,1454.53 -1327.39,1530.17 -1254.88,1550.97 C-1182.37,1571.76 -1106.73,1529.84 -1085.93,1457.33 Z " fill="none" stroke-width="5.95" stroke="#fe7a15" stroke-linecap="square" stroke-linejoin="miter" filter="url(#QGNuHlXT)" />			<defs>				<filter id="KCRFj62o" x="-21.57%" y="-19.88%" width="168.09%" height="166.40%" filterUnits="objectBoundingBox">					<feOffset dx="4.72" dy="9.44" in="SourceAlpha" result="shadowOffsetOuter1" />					<feGaussianBlur stdDeviation="32.47" in="shadowOffsetOuter1" result="shadowBlurOuter1" />					<feFlood flood-color="#4d4d4d" flood-opacity="1.00" />					<feComposite in2="shadowBlurOuter1" operator="in" />					<feMerge>						<feMergeNode />						<feMergeNode in="SourceGraphic" />					</feMerge>				</filter>			</defs>			<path d="M-1086.89,1223.72 C-1066.1,1151.21 -1108.02,1075.58 -1180.53,1054.78 C-1253.04,1033.98 -1328.68,1075.9 -1349.47,1148.41 C-1370.27,1220.92 -1328.35,1296.56 -1255.84,1317.36 C-1183.33,1338.15 -1107.69,1296.23 -1086.89,1223.72 Z " fill="none" stroke-width="5.95" stroke="#fe7a15" stroke-linecap="square" stroke-linejoin="miter" filter="url(#KCRFj62o)" />			<defs>				<filter id="Yp3BRu53" x="-21.57%" y="-19.88%" width="168.09%" height="166.40%" filterUnits="objectBoundingBox">					<feOffset dx="4.72" dy="9.44" in="SourceAlpha" result="shadowOffsetOuter1" />					<feGaussianBlur stdDeviation="32.47" in="shadowOffsetOuter1" result="shadowBlurOuter1" />					<feFlood flood-color="#4d4d4d" flood-opacity="1.00" />					<feComposite in2="shadowBlurOuter1" operator="in" />					<feMerge>						<feMergeNode />						<feMergeNode in="SourceGraphic" />					</feMerge>				</filter>			</defs>			<path d="M-1221.02,1219.44 C-1200.22,1146.93 -1242.14,1071.29 -1314.65,1050.5 C-1387.16,1029.7 -1462.8,1071.62 -1483.59,1144.13 C-1504.39,1216.64 -1462.47,1292.28 -1389.96,1313.07 C-1317.45,1333.87 -1241.81,1291.95 -1221.02,1219.44 Z " fill="none" stroke-width="5.95" stroke="#0191b4" stroke-linecap="square" stroke-linejoin="miter" filter="url(#Yp3BRu53)" />			<defs>				<filter id="BRprtjTK" x="-21.57%" y="-19.88%" width="168.09%" height="166.40%" filterUnits="objectBoundingBox">					<feOffset dx="4.72" dy="9.44" in="SourceAlpha" result="shadowOffsetOuter1" />					<feGaussianBlur stdDeviation="32.47" in="shadowOffsetOuter1" result="shadowBlurOuter1" />					<feFlood flood-color="#3162a6" flood-opacity="1.00" />					<feComposite in2="shadowBlurOuter1" operator="in" />					<feMerge>						<feMergeNode />						<feMergeNode in="SourceGraphic" />					</feMerge>				</filter>			</defs>			<path d="M-1294.87,1339.4 C-1274.08,1266.89 -1316,1191.25 -1388.51,1170.45 C-1461.02,1149.66 -1536.66,1191.58 -1557.45,1264.09 C-1578.25,1336.59 -1536.33,1412.23 -1463.82,1433.03 C-1391.31,1453.83 -1315.67,1411.9 -1294.87,1339.4 Z " fill="none" stroke-width="5.95" stroke="#fe7a15" stroke-linecap="square" stroke-linejoin="miter" filter="url(#BRprtjTK)" />			<defs>				<filter id="3NfVhyPb" x="-21.57%" y="-19.88%" width="168.09%" height="166.40%" filterUnits="objectBoundingBox">					<feOffset dx="4.72" dy="9.44" in="SourceAlpha" result="shadowOffsetOuter1" />					<feGaussianBlur stdDeviation="32.47" in="shadowOffsetOuter1" result="shadowBlurOuter1" />					<feFlood flood-color="#4d4d4d" flood-opacity="1.00" />					<feComposite in2="shadowBlurOuter1" operator="in" />					<feMerge>						<feMergeNode />						<feMergeNode in="SourceGraphic" />					</feMerge>				</filter>			</defs>			<path d="M-1229.78,1457.33 C-1208.98,1384.83 -1250.9,1309.19 -1323.41,1288.39 C-1395.92,1267.59 -1471.56,1309.52 -1492.35,1382.02 C-1513.15,1454.53 -1471.23,1530.17 -1398.72,1550.97 C-1326.21,1571.76 -1250.57,1529.84 -1229.78,1457.33 Z " fill="none" stroke-width="5.95" stroke="#0191b4" stroke-linecap="square" stroke-linejoin="miter" filter="url(#3NfVhyPb)" />			<defs>				<filter id="3t28ZnkZ" x="-19.85%" y="-18.30%" width="162.67%" height="161.11%" filterUnits="objectBoundingBox">					<feOffset dx="0.49" dy="0.98" in="SourceAlpha" result="shadowOffsetOuter1" />					<feGaussianBlur stdDeviation="3.36" in="shadowOffsetOuter1" result="shadowBlurOuter1" />					<feFlood flood-color="#4d4d4d" flood-opacity="1.00" />					<feComposite in2="shadowBlurOuter1" operator="in" />					<feMerge>						<feMergeNode />						<feMergeNode in="SourceGraphic" />					</feMerge>				</filter>			</defs>			<path d="M17.9912,434.41 C21.1323,441.553 29.4696,444.798 36.6128,441.656 C43.7561,438.515 47.0005,430.178 43.8593,423.035 C40.7181,415.892 32.3809,412.647 25.2376,415.788 C18.0943,418.93 14.85,427.267 17.9912,434.41 Z " fill="#f53240" fill-opacity="0.76" stroke-width="3.12" stroke="#0191b4" stroke-linecap="square" stroke-linejoin="miter" filter="url(#3t28ZnkZ)" />			<defs>				<filter id="t1NAKJS1" x="-19.85%" y="-18.30%" width="162.67%" height="161.11%" filterUnits="objectBoundingBox">					<feOffset dx="0.49" dy="0.98" in="SourceAlpha" result="shadowOffsetOuter1" />					<feGaussianBlur stdDeviation="3.36" in="shadowOffsetOuter1" result="shadowBlurOuter1" />					<feFlood flood-color="#4d4d4d" flood-opacity="1.00" />					<feComposite in2="shadowBlurOuter1" operator="in" />					<feMerge>						<feMergeNode />						<feMergeNode in="SourceGraphic" />					</feMerge>				</filter>			</defs>			<path d="M31.4035,439.57 C34.5447,446.713 42.8819,449.957 50.0252,446.816 C57.1685,443.675 60.4128,435.338 57.2716,428.195 C54.1304,421.051 45.7932,417.807 38.6499,420.948 C31.5066,424.089 28.2623,432.426 31.4035,439.57 Z " fill="#71b7f3" fill-opacity="0.68" stroke-width="3.12" stroke="#fe7a15" stroke-linecap="square" stroke-linejoin="miter" filter="url(#t1NAKJS1)" />			<defs>				<filter id="pkupOo9w" x="-19.85%" y="-18.30%" width="162.67%" height="161.11%" filterUnits="objectBoundingBox">					<feOffset dx="0.49" dy="0.98" in="SourceAlpha" result="shadowOffsetOuter1" />					<feGaussianBlur stdDeviation="3.36" in="shadowOffsetOuter1" result="shadowBlurOuter1" />					<feFlood flood-color="#4d4d4d" flood-opacity="1.00" />					<feComposite in2="shadowBlurOuter1" operator="in" />					<feMerge>						<feMergeNode />						<feMergeNode in="SourceGraphic" />					</feMerge>				</filter>			</defs>			<path d="M15.8767,421.05 C19.0179,428.194 27.3551,431.438 34.4984,428.297 C41.6417,425.156 44.886,416.818 41.7448,409.675 C38.6037,402.532 30.2664,399.287 23.1232,402.429 C15.9799,405.57 12.7355,413.907 15.8767,421.05 Z " fill="#71b7f3" fill-opacity="0.68" stroke-width="3.12" stroke="#fe7a15" stroke-linecap="square" stroke-linejoin="miter" filter="url(#pkupOo9w)" />			<defs>				<filter id="8LL8mlM7" x="-19.85%" y="-18.30%" width="162.67%" height="161.11%" filterUnits="objectBoundingBox">					<feOffset dx="0.49" dy="0.98" in="SourceAlpha" result="shadowOffsetOuter1" />					<feGaussianBlur stdDeviation="3.36" in="shadowOffsetOuter1" result="shadowBlurOuter1" />					<feFlood flood-color="#4d4d4d" flood-opacity="1.00" />					<feComposite in2="shadowBlurOuter1" operator="in" />					<feMerge>						<feMergeNode />						<feMergeNode in="SourceGraphic" />					</feMerge>				</filter>			</defs>			<path d="M42.3557,431.04 C45.4969,438.183 53.8341,441.428 60.9774,438.287 C68.1207,435.145 71.365,426.808 68.2238,419.665 C65.0826,412.522 56.7454,409.277 49.6021,412.418 C42.4589,415.56 39.2145,423.897 42.3557,431.04 Z " fill="#f53240" fill-opacity="0.76" stroke-width="3.12" stroke="#0191b4" stroke-linecap="square" stroke-linejoin="miter" filter="url(#8LL8mlM7)" />			<defs>				<filter id="HaRuRHuS" x="-19.85%" y="-18.30%" width="162.67%" height="161.11%" filterUnits="objectBoundingBox">					<feOffset dx="0.49" dy="0.98" in="SourceAlpha" result="shadowOffsetOuter1" />					<feGaussianBlur stdDeviation="3.36" in="shadowOffsetOuter1" result="shadowBlurOuter1" />					<feFlood flood-color="#3162a6" flood-opacity="1.00" />					<feComposite in2="shadowBlurOuter1" operator="in" />					<feMerge>						<feMergeNode />						<feMergeNode in="SourceGraphic" />					</feMerge>				</filter>			</defs>			<path d="M40.4882,416.613 C43.6294,423.756 51.9666,427.001 59.1099,423.86 C66.2532,420.718 69.4976,412.381 66.3564,405.238 C63.2152,398.095 54.878,394.85 47.7347,397.991 C40.5914,401.133 37.3471,409.47 40.4882,416.613 Z " fill="#71b7f3" fill-opacity="0.68" stroke-width="3.12" stroke="#fe7a15" stroke-linecap="square" stroke-linejoin="miter" filter="url(#HaRuRHuS)" />			<defs>				<filter id="TGgULawc" x="-19.85%" y="-18.30%" width="162.67%" height="161.11%" filterUnits="objectBoundingBox">					<feOffset dx="0.49" dy="0.98" in="SourceAlpha" result="shadowOffsetOuter1" />					<feGaussianBlur stdDeviation="3.36" in="shadowOffsetOuter1" result="shadowBlurOuter1" />					<feFlood flood-color="#4d4d4d" flood-opacity="1.00" />					<feComposite in2="shadowBlurOuter1" operator="in" />					<feMerge>						<feMergeNode />						<feMergeNode in="SourceGraphic" />					</feMerge>				</filter>			</defs>			<path d="M27.3191,411.537 C30.4603,418.68 38.7975,421.925 45.9408,418.783 C53.0841,415.642 56.3284,407.305 53.1872,400.162 C50.046,393.018 41.7088,389.774 34.5655,392.915 C27.4223,396.056 24.1779,404.394 27.3191,411.537 Z " fill="#f53240" fill-opacity="0.76" stroke-width="3.12" stroke="#0191b4" stroke-linecap="square" stroke-linejoin="miter" filter="url(#TGgULawc)" />			<defs>				<filter id="TnhrYRNd" x="-22.04%" y="-20.31%" width="169.58%" height="167.85%" filterUnits="objectBoundingBox">					<feOffset dx="0.49" dy="0.98" in="SourceAlpha" result="shadowOffsetOuter1" />					<feGaussianBlur stdDeviation="3.36" in="shadowOffsetOuter1" result="shadowBlurOuter1" />					<feFlood flood-color="#4d4d4d" flood-opacity="1.00" />					<feComposite in2="shadowBlurOuter1" operator="in" />					<feMerge>						<feMergeNode />						<feMergeNode in="SourceGraphic" />					</feMerge>				</filter>			</defs>			<path d="M99.0202,435.554 C102.161,442.697 110.499,445.942 117.642,442.8 C124.785,439.659 128.03,431.322 124.888,424.179 C121.747,417.035 113.41,413.791 106.267,416.932 C99.1234,420.073 95.879,428.411 99.0202,435.554 Z " fill="#f53240" fill-opacity="0.76" filter="url(#TnhrYRNd)" />			<defs>				<filter id="QYFC8pRX" x="-22.04%" y="-20.31%" width="169.58%" height="167.85%" filterUnits="objectBoundingBox">					<feOffset dx="0.49" dy="0.98" in="SourceAlpha" result="shadowOffsetOuter1" />					<feGaussianBlur stdDeviation="3.36" in="shadowOffsetOuter1" result="shadowBlurOuter1" />					<feFlood flood-color="#4d4d4d" flood-opacity="1.00" />					<feComposite in2="shadowBlurOuter1" operator="in" />					<feMerge>						<feMergeNode />						<feMergeNode in="SourceGraphic" />					</feMerge>				</filter>			</defs>			<path d="M112.433,440.714 C115.574,447.857 123.911,451.101 131.054,447.96 C138.197,444.819 141.442,436.482 138.301,429.338 C135.159,422.195 126.822,418.951 119.679,422.092 C112.536,425.233 109.291,433.57 112.433,440.714 Z " fill="#71b7f3" fill-opacity="0.68" filter="url(#QYFC8pRX)" />			<defs>				<filter id="r0aIOUjC" x="-22.04%" y="-20.31%" width="169.58%" height="167.85%" filterUnits="objectBoundingBox">					<feOffset dx="0.49" dy="0.98" in="SourceAlpha" result="shadowOffsetOuter1" />					<feGaussianBlur stdDeviation="3.36" in="shadowOffsetOuter1" result="shadowBlurOuter1" />					<feFlood flood-color="#4d4d4d" flood-opacity="1.00" />					<feComposite in2="shadowBlurOuter1" operator="in" />					<feMerge>						<feMergeNode />						<feMergeNode in="SourceGraphic" />					</feMerge>				</filter>			</defs>			<path d="M96.9058,422.194 C100.047,429.337 108.384,432.582 115.527,429.441 C122.671,426.299 125.915,417.962 122.774,410.819 C119.633,403.676 111.295,400.431 104.152,403.573 C97.0089,406.714 93.7646,415.051 96.9058,422.194 Z " fill="#71b7f3" fill-opacity="0.68" filter="url(#r0aIOUjC)" />			<defs>				<filter id="LgTSmliW" x="-22.04%" y="-20.31%" width="169.58%" height="167.85%" filterUnits="objectBoundingBox">					<feOffset dx="0.49" dy="0.98" in="SourceAlpha" result="shadowOffsetOuter1" />					<feGaussianBlur stdDeviation="3.36" in="shadowOffsetOuter1" result="shadowBlurOuter1" />					<feFlood flood-color="#4d4d4d" flood-opacity="1.00" />					<feComposite in2="shadowBlurOuter1" operator="in" />					<feMerge>						<feMergeNode />						<feMergeNode in="SourceGraphic" />					</feMerge>				</filter>			</defs>			<path d="M123.385,432.184 C126.526,439.327 134.863,442.572 142.006,439.431 C149.15,436.289 152.394,427.952 149.253,420.809 C146.112,413.666 137.774,410.421 130.631,413.562 C123.488,416.704 120.244,425.041 123.385,432.184 Z " fill="#f53240" fill-opacity="0.76" filter="url(#LgTSmliW)" />			<defs>				<filter id="CI24qHmQ" x="-22.04%" y="-20.31%" width="169.58%" height="167.85%" filterUnits="objectBoundingBox">					<feOffset dx="0.49" dy="0.98" in="SourceAlpha" result="shadowOffsetOuter1" />					<feGaussianBlur stdDeviation="3.36" in="shadowOffsetOuter1" result="shadowBlurOuter1" />					<feFlood flood-color="#3162a6" flood-opacity="1.00" />					<feComposite in2="shadowBlurOuter1" operator="in" />					<feMerge>						<feMergeNode />						<feMergeNode in="SourceGraphic" />					</feMerge>				</filter>			</defs>			<path d="M121.517,417.757 C124.658,424.9 132.996,428.145 140.139,425.004 C147.282,421.862 150.527,413.525 147.385,406.382 C144.244,399.239 135.907,395.994 128.764,399.135 C121.62,402.277 118.376,410.614 121.517,417.757 Z " fill="#71b7f3" fill-opacity="0.68" filter="url(#CI24qHmQ)" />			<defs>				<filter id="OSQl7Cqx" x="-22.04%" y="-20.31%" width="169.58%" height="167.85%" filterUnits="objectBoundingBox">					<feOffset dx="0.49" dy="0.98" in="SourceAlpha" result="shadowOffsetOuter1" />					<feGaussianBlur stdDeviation="3.36" in="shadowOffsetOuter1" result="shadowBlurOuter1" />					<feFlood flood-color="#4d4d4d" flood-opacity="1.00" />					<feComposite in2="shadowBlurOuter1" operator="in" />					<feMerge>						<feMergeNode />						<feMergeNode in="SourceGraphic" />					</feMerge>				</filter>			</defs>			<path d="M108.348,412.681 C111.489,419.824 119.827,423.068 126.97,419.927 C134.113,416.786 137.357,408.449 134.216,401.306 C131.075,394.162 122.738,390.918 115.595,394.059 C108.451,397.2 105.207,405.538 108.348,412.681 Z " fill="#f53240" fill-opacity="0.76" filter="url(#OSQl7Cqx)" />			<defs>				<filter id="uBR1Cuqq" x="-22.04%" y="-20.31%" width="169.58%" height="167.85%" filterUnits="objectBoundingBox">					<feOffset dx="0.49" dy="0.98" in="SourceAlpha" result="shadowOffsetOuter1" />					<feGaussianBlur stdDeviation="3.36" in="shadowOffsetOuter1" result="shadowBlurOuter1" />					<feFlood flood-color="#4d4d4d" flood-opacity="1.00" />					<feComposite in2="shadowBlurOuter1" operator="in" />					<feMerge>						<feMergeNode />						<feMergeNode in="SourceGraphic" />					</feMerge>				</filter>			</defs>			<path d="M184.434,437.461 C187.576,444.604 195.913,447.848 203.056,444.707 C210.199,441.566 213.444,433.229 210.302,426.085 C207.161,418.942 198.824,415.698 191.681,418.839 C184.538,421.98 181.293,430.317 184.434,437.461 Z " fill="#71b7f3" fill-opacity="0.77" filter="url(#uBR1Cuqq)" />			<defs>				<filter id="cV5dQO1D" x="-22.04%" y="-20.31%" width="169.58%" height="167.85%" filterUnits="objectBoundingBox">					<feOffset dx="0.49" dy="0.98" in="SourceAlpha" result="shadowOffsetOuter1" />					<feGaussianBlur stdDeviation="3.36" in="shadowOffsetOuter1" result="shadowBlurOuter1" />					<feFlood flood-color="#4d4d4d" flood-opacity="1.00" />					<feComposite in2="shadowBlurOuter1" operator="in" />					<feMerge>						<feMergeNode />						<feMergeNode in="SourceGraphic" />					</feMerge>				</filter>			</defs>			<path d="M197.847,442.62 C200.988,449.764 209.325,453.008 216.468,449.867 C223.612,446.726 226.856,438.388 223.715,431.245 C220.574,424.102 212.236,420.857 205.093,423.999 C197.95,427.14 194.705,435.477 197.847,442.62 Z " fill="#71b7f3" fill-opacity="0.77" filter="url(#cV5dQO1D)" />			<defs>				<filter id="pe4rDB09" x="-22.04%" y="-20.31%" width="169.58%" height="167.85%" filterUnits="objectBoundingBox">					<feOffset dx="0.49" dy="0.98" in="SourceAlpha" result="shadowOffsetOuter1" />					<feGaussianBlur stdDeviation="3.36" in="shadowOffsetOuter1" result="shadowBlurOuter1" />					<feFlood flood-color="#4d4d4d" flood-opacity="1.00" />					<feComposite in2="shadowBlurOuter1" operator="in" />					<feMerge>						<feMergeNode />						<feMergeNode in="SourceGraphic" />					</feMerge>				</filter>			</defs>			<path d="M182.32,424.101 C185.461,431.244 193.798,434.488 200.942,431.347 C208.085,428.206 211.329,419.869 208.188,412.726 C205.047,405.582 196.71,402.338 189.566,405.479 C182.423,408.62 179.179,416.957 182.32,424.101 Z " fill="#71b7f3" fill-opacity="0.77" filter="url(#pe4rDB09)" />			<defs>				<filter id="hCJC6br6" x="-22.04%" y="-20.31%" width="169.58%" height="167.85%" filterUnits="objectBoundingBox">					<feOffset dx="0.49" dy="0.98" in="SourceAlpha" result="shadowOffsetOuter1" />					<feGaussianBlur stdDeviation="3.36" in="shadowOffsetOuter1" result="shadowBlurOuter1" />					<feFlood flood-color="#4d4d4d" flood-opacity="1.00" />					<feComposite in2="shadowBlurOuter1" operator="in" />					<feMerge>						<feMergeNode />						<feMergeNode in="SourceGraphic" />					</feMerge>				</filter>			</defs>			<path d="M208.799,434.091 C211.94,441.234 220.277,444.478 227.421,441.337 C234.564,438.196 237.808,429.859 234.667,422.715 C231.526,415.572 223.189,412.328 216.045,415.469 C208.902,418.61 205.658,426.947 208.799,434.091 Z " fill="#71b7f3" fill-opacity="0.77" filter="url(#hCJC6br6)" />			<defs>				<filter id="V2mOojV2" x="-22.04%" y="-20.31%" width="169.58%" height="167.85%" filterUnits="objectBoundingBox">					<feOffset dx="0.49" dy="0.98" in="SourceAlpha" result="shadowOffsetOuter1" />					<feGaussianBlur stdDeviation="3.36" in="shadowOffsetOuter1" result="shadowBlurOuter1" />					<feFlood flood-color="#3162a6" flood-opacity="1.00" />					<feComposite in2="shadowBlurOuter1" operator="in" />					<feMerge>						<feMergeNode />						<feMergeNode in="SourceGraphic" />					</feMerge>				</filter>			</defs>			<path d="M206.931,419.664 C210.073,426.807 218.41,430.051 225.553,426.91 C232.696,423.769 235.941,415.432 232.8,408.288 C229.658,401.145 221.321,397.901 214.178,401.042 C207.035,404.183 203.79,412.52 206.931,419.664 Z " fill="#71b7f3" fill-opacity="0.77" filter="url(#V2mOojV2)" />			<defs>				<filter id="eVF3SmA1" x="-22.04%" y="-20.31%" width="169.58%" height="167.85%" filterUnits="objectBoundingBox">					<feOffset dx="0.49" dy="0.98" in="SourceAlpha" result="shadowOffsetOuter1" />					<feGaussianBlur stdDeviation="3.36" in="shadowOffsetOuter1" result="shadowBlurOuter1" />					<feFlood flood-color="#4d4d4d" flood-opacity="1.00" />					<feComposite in2="shadowBlurOuter1" operator="in" />					<feMerge>						<feMergeNode />						<feMergeNode in="SourceGraphic" />					</feMerge>				</filter>			</defs>			<path d="M193.762,414.587 C196.903,421.731 205.241,424.975 212.384,421.834 C219.527,418.693 222.772,410.355 219.63,403.212 C216.489,396.069 208.152,392.825 201.009,395.966 C193.865,399.107 190.621,407.444 193.762,414.587 Z " fill="#71b7f3" fill-opacity="0.77" filter="url(#eVF3SmA1)" />			<defs>				<filter id="R663eoLU" x="-3.72%" y="0.00%" width="122.06%" height="120.05%" filterUnits="objectBoundingBox">					<feOffset dx="20.10" dy="40.19" in="SourceAlpha" result="shadowOffsetOuter1" />					<feGaussianBlur stdDeviation="16.92" in="shadowOffsetOuter1" result="shadowBlurOuter1" />					<feFlood flood-color="#000000" flood-opacity="0.31" />					<feComposite in2="shadowBlurOuter1" operator="in" />					<feMerge>						<feMergeNode />						<feMergeNode in="SourceGraphic" />					</feMerge>				</filter>			</defs>			<path d="M-1049.71,3237.68 C-1046.05,3136.34 -1125.24,3051.22 -1226.58,3047.56 C-1327.92,3043.91 -1413.04,3123.09 -1416.7,3224.43 C-1420.36,3325.78 -1341.17,3410.89 -1239.83,3414.55 C-1138.49,3418.21 -1053.37,3339.02 -1049.71,3237.68 Z " fill="none" stroke-width="2.00" stroke="#000000" stroke-linecap="square" stroke-linejoin="miter" filter="url(#R663eoLU)" />			<path d="M-2575.54,2510.77 C-2554.74,2438.27 -2596.66,2362.63 -2669.17,2341.83 C-2741.68,2321.03 -2817.32,2362.96 -2838.11,2435.46 C-2858.91,2507.97 -2816.99,2583.61 -2744.48,2604.41 C-2671.97,2625.2 -2596.33,2583.28 -2575.54,2510.77 Z " fill="#ff5800" fill-opacity="1.00" />			<path d="M-2642.38,2623.15 C-2621.59,2550.64 -2663.51,2475 -2736.02,2454.2 C-2808.52,2433.4 -2884.16,2475.33 -2904.96,2547.83 C-2925.76,2620.34 -2883.83,2695.98 -2811.33,2716.78 C-2738.82,2737.58 -2663.18,2695.65 -2642.38,2623.15 Z " fill="#ffa100" fill-opacity="1.00" />			<path d="M-2643.34,2389.53 C-2622.55,2317.03 -2664.47,2241.39 -2736.98,2220.59 C-2809.49,2199.79 -2885.12,2241.72 -2905.92,2314.22 C-2926.72,2386.73 -2884.8,2462.37 -2812.29,2483.17 C-2739.78,2503.96 -2664.14,2462.04 -2643.34,2389.53 Z " fill="#00a599" fill-opacity="1.00" />			<path d="M-2777.46,2385.25 C-2756.67,2312.74 -2798.59,2237.1 -2871.1,2216.31 C-2943.61,2195.51 -3019.25,2237.43 -3040.04,2309.94 C-3060.84,2382.45 -3018.92,2458.09 -2946.41,2478.88 C-2873.9,2499.68 -2798.26,2457.76 -2777.46,2385.25 Z " fill="#d5d2ca" fill-opacity="1.00" />			<path d="M-2851.32,2505.21 C-2830.53,2432.7 -2872.45,2357.06 -2944.96,2336.26 C-3017.47,2315.47 -3093.11,2357.39 -3113.9,2429.9 C-3134.7,2502.41 -3092.78,2578.04 -3020.27,2598.84 C-2947.76,2619.64 -2872.12,2577.72 -2851.32,2505.21 Z " fill="#882345" fill-opacity="1.00" />			<path d="M-2786.23,2623.15 C-2765.43,2550.64 -2807.35,2475 -2879.86,2454.2 C-2952.37,2433.4 -3028.01,2475.33 -3048.8,2547.83 C-3069.6,2620.34 -3027.68,2695.98 -2955.17,2716.78 C-2882.66,2737.58 -2807.02,2695.65 -2786.23,2623.15 Z " fill="#d52b1e" fill-opacity="1.00" />			<path d="M-429.086,59.6017 C-426.452,52.2094 -430.309,44.0817 -437.701,41.4478 C-445.094,38.8139 -453.221,42.6713 -455.855,50.0636 C-458.489,57.4558 -454.632,65.5836 -447.24,68.2175 C-439.847,70.8513 -431.72,66.9939 -429.086,59.6017 Z " fill="#882345" fill-opacity="1.00" />			<defs>				<filter id="hEjIHKwH" x="-3.74%" y="0.00%" width="122.17%" height="120.16%" filterUnits="objectBoundingBox">					<feOffset dx="36.84" dy="73.67" in="SourceAlpha" result="shadowOffsetOuter1" />					<feGaussianBlur stdDeviation="31.02" in="shadowOffsetOuter1" result="shadowBlurOuter1" />					<feFlood flood-color="#000000" flood-opacity="0.31" />					<feComposite in2="shadowBlurOuter1" operator="in" />					<feMerge>						<feMergeNode />						<feMergeNode in="SourceGraphic" />					</feMerge>				</filter>			</defs>			<path d="M-4847.78,109.312 C-4764.39,-56.8132 -4831.46,-259.088 -4997.58,-342.481 C-5163.71,-425.874 -5365.98,-358.806 -5449.38,-192.681 C-5532.77,-26.5557 -5465.7,175.719 -5299.58,259.112 C-5133.45,342.505 -4931.18,275.437 -4847.78,109.312 Z " fill="#9c9c9c" fill-opacity="1.00" filter="url(#hEjIHKwH)" />			<path d="M-3145.87,826.082 C-3125.08,753.574 -3167,677.935 -3239.51,657.138 C-3312.01,636.342 -3387.65,678.263 -3408.45,750.772 C-3429.25,823.28 -3387.33,898.919 -3314.82,919.716 C-3242.31,940.512 -3166.67,898.591 -3145.87,826.082 Z " fill="#f53240" fill-opacity="1.00" />			<path d="M-3213.68,704.843 C-3192.88,632.334 -3234.8,556.695 -3307.31,535.899 C-3379.82,515.102 -3455.46,557.023 -3476.26,629.532 C-3497.05,702.041 -3455.13,777.68 -3382.62,798.476 C-3310.12,819.272 -3234.48,777.351 -3213.68,704.843 Z " fill="#7cdbd5" fill-opacity="1.00" />			<path d="M-3212.72,938.453 C-3191.92,865.945 -3233.84,790.306 -3306.35,769.509 C-3378.86,748.713 -3454.5,790.634 -3475.3,863.143 C-3496.09,935.652 -3454.17,1011.29 -3381.66,1032.09 C-3309.15,1052.88 -3233.51,1010.96 -3212.72,938.453 Z " fill="#f9be02" fill-opacity="1.00" />			<path d="M-3347.8,700.56 C-3327,628.051 -3368.93,552.412 -3441.43,531.616 C-3513.94,510.819 -3589.58,552.74 -3610.38,625.249 C-3631.17,697.758 -3589.25,773.397 -3516.75,794.193 C-3444.24,814.989 -3368.6,773.068 -3347.8,700.56 Z " fill="#f9be02" fill-opacity="1.00" />			<path d="M-3421.66,820.515 C-3400.86,748.006 -3442.79,672.368 -3515.29,651.571 C-3587.8,630.775 -3663.44,672.696 -3684.24,745.205 C-3705.03,817.713 -3663.11,893.352 -3590.6,914.149 C-3518.1,934.945 -3442.46,893.024 -3421.66,820.515 Z " fill="#f53240" fill-opacity="1.00" />			<path d="M-3356.56,938.453 C-3335.77,865.945 -3377.69,790.306 -3450.2,769.509 C-3522.7,748.713 -3598.34,790.634 -3619.14,863.143 C-3639.94,935.652 -3598.01,1011.29 -3525.51,1032.09 C-3453,1052.88 -3377.36,1010.96 -3356.56,938.453 Z " fill="#02c8a7" fill-opacity="1.00" />			<path d="M-4575.96,1877.57 C-4555.16,1805.06 -4597.08,1729.43 -4669.59,1708.63 C-4742.1,1687.83 -4817.74,1729.75 -4838.54,1802.26 C-4859.33,1874.77 -4817.41,1950.41 -4744.9,1971.21 C-4672.4,1992 -4596.76,1950.08 -4575.96,1877.57 Z " fill="#7cdbd5" fill-opacity="1.00" />			<path d="M41.2136,2084 C62.01,2011.49 20.0889,1935.85 -52.4198,1915.05 C-124.929,1894.26 -200.567,1936.18 -221.364,2008.69 C-242.16,2081.2 -200.239,2156.83 -127.73,2177.63 C-55.2216,2198.43 20.4172,2156.51 41.2136,2084 Z " fill="none" />			<path d="M41.2024,2084.22 C61.9988,2011.71 20.0777,1936.07 -52.431,1915.27 C-124.94,1894.48 -200.579,1936.4 -221.375,2008.91 C-242.171,2081.41 -200.25,2157.05 -127.742,2177.85 C-55.2329,2198.65 20.4059,2156.73 41.2024,2084.22 Z " fill="#f7882f" fill-opacity="0.99" />			<path d="M-25.8248,1961.42 C-5.02834,1888.91 -46.9494,1813.27 -119.458,1792.47 C-191.967,1771.68 -267.606,1813.6 -288.402,1886.11 C-309.199,1958.61 -267.277,2034.25 -194.769,2055.05 C-122.26,2075.85 -46.6212,2033.92 -25.8248,1961.42 Z " fill="#6b7a8f" fill-opacity="1.00" />			<path d="M-95.9825,2077.98 C-75.1861,2005.47 -117.107,1929.83 -189.616,1909.04 C-262.125,1888.24 -337.763,1930.16 -358.56,2002.67 C-379.356,2075.18 -337.435,2150.82 -264.926,2171.61 C-192.418,2192.41 -116.779,2150.49 -95.9825,2077.98 Z " fill="none" />			<path d="M-160.715,1958.47 C-139.919,1885.97 -181.84,1810.33 -254.348,1789.53 C-326.857,1768.73 -402.496,1810.66 -423.292,1883.16 C-444.089,1955.67 -402.168,2031.31 -329.659,2052.11 C-257.15,2072.9 -181.511,2030.98 -160.715,1958.47 Z " fill="none" />			<path d="M-57.3964,2179.69 C-36.6,2107.18 -78.521,2031.54 -151.03,2010.75 C-223.538,1989.95 -299.177,2031.87 -319.974,2104.38 C-340.77,2176.89 -298.849,2252.53 -226.34,2273.32 C-153.832,2294.12 -78.1928,2252.2 -57.3964,2179.69 Z " fill="none" />			<path d="M-159.946,1957.13 C-139.149,1884.62 -181.07,1808.99 -253.579,1788.19 C-326.088,1767.39 -401.726,1809.31 -422.523,1881.82 C-443.319,1954.33 -401.398,2029.97 -328.89,2050.77 C-256.381,2071.56 -180.742,2029.64 -159.946,1957.13 Z " fill="#f7c331" fill-opacity="1.00" />			<path d="M-26.5941,1962.76 C-5.79769,1890.25 -47.7188,1814.61 -120.228,1793.81 C-192.736,1773.02 -268.375,1814.94 -289.171,1887.45 C-309.968,1959.96 -268.047,2035.59 -195.538,2056.39 C-123.029,2077.19 -47.3906,2035.27 -26.5941,1962.76 Z " fill="none" />			<defs>				<filter id="8UFi1iUJ" x="-3.72%" y="0.00%" width="122.01%" height="120.01%" filterUnits="objectBoundingBox">					<feOffset dx="14.95" dy="29.90" in="SourceAlpha" result="shadowOffsetOuter1" />					<feGaussianBlur stdDeviation="12.59" in="shadowOffsetOuter1" result="shadowBlurOuter1" />					<feFlood flood-color="#b92121" flood-opacity="0.31" />					<feComposite in2="shadowBlurOuter1" operator="in" />					<feMerge>						<feMergeNode />						<feMergeNode in="SourceGraphic" />					</feMerge>				</filter>			</defs>			<path d="M-1631.48,-640.406 C-1610.68,-712.915 -1652.6,-788.553 -1725.11,-809.35 C-1797.62,-830.146 -1873.26,-788.225 -1894.06,-715.716 C-1914.85,-643.208 -1872.93,-567.569 -1800.42,-546.772 C-1727.91,-525.976 -1652.27,-567.897 -1631.48,-640.406 Z " fill="#4184be" fill-opacity="0.09" stroke-width="2.00" stroke="#000000" stroke-linecap="square" stroke-linejoin="miter" filter="url(#8UFi1iUJ)" />			<defs>				<filter id="7fDoojuG" x="-3.72%" y="0.00%" width="122.01%" height="120.01%" filterUnits="objectBoundingBox">					<feOffset dx="14.95" dy="29.90" in="SourceAlpha" result="shadowOffsetOuter1" />					<feGaussianBlur stdDeviation="12.59" in="shadowOffsetOuter1" result="shadowBlurOuter1" />					<feFlood flood-color="#b92121" flood-opacity="0.31" />					<feComposite in2="shadowBlurOuter1" operator="in" />					<feMerge>						<feMergeNode />						<feMergeNode in="SourceGraphic" />					</feMerge>				</filter>			</defs>			<path d="M-1698.32,-528.035 C-1677.53,-600.544 -1719.45,-676.182 -1791.96,-696.979 C-1864.47,-717.775 -1940.1,-675.854 -1960.9,-603.345 C-1981.7,-530.837 -1939.78,-455.198 -1867.27,-434.401 C-1794.76,-413.605 -1719.12,-455.526 -1698.32,-528.035 Z " fill="#4184be" fill-opacity="0.09" stroke-width="2.00" stroke="#000000" stroke-linecap="square" stroke-linejoin="miter" filter="url(#7fDoojuG)" />			<defs>				<filter id="HM23Wdes" x="-3.72%" y="0.00%" width="122.01%" height="120.01%" filterUnits="objectBoundingBox">					<feOffset dx="14.95" dy="29.90" in="SourceAlpha" result="shadowOffsetOuter1" />					<feGaussianBlur stdDeviation="12.59" in="shadowOffsetOuter1" result="shadowBlurOuter1" />					<feFlood flood-color="#b92121" flood-opacity="0.31" />					<feComposite in2="shadowBlurOuter1" operator="in" />					<feMerge>						<feMergeNode />						<feMergeNode in="SourceGraphic" />					</feMerge>				</filter>			</defs>			<path d="M-1699.29,-761.646 C-1678.49,-834.154 -1720.41,-909.793 -1792.92,-930.59 C-1865.43,-951.386 -1941.07,-909.465 -1961.86,-836.956 C-1982.66,-764.447 -1940.74,-688.809 -1868.23,-668.012 C-1795.72,-647.216 -1720.08,-689.137 -1699.29,-761.646 Z " fill="#4184be" fill-opacity="0.09" stroke-width="2.00" stroke="#000000" stroke-linecap="square" stroke-linejoin="miter" filter="url(#HM23Wdes)" />			<defs>				<filter id="AW6DwG9u" x="-3.72%" y="0.00%" width="122.01%" height="120.01%" filterUnits="objectBoundingBox">					<feOffset dx="14.95" dy="29.90" in="SourceAlpha" result="shadowOffsetOuter1" />					<feGaussianBlur stdDeviation="12.59" in="shadowOffsetOuter1" result="shadowBlurOuter1" />					<feFlood flood-color="#b92121" flood-opacity="0.31" />					<feComposite in2="shadowBlurOuter1" operator="in" />					<feMerge>						<feMergeNode />						<feMergeNode in="SourceGraphic" />					</feMerge>				</filter>			</defs>			<path d="M-1833.41,-765.929 C-1812.61,-838.437 -1854.53,-914.076 -1927.04,-934.873 C-1999.55,-955.669 -2075.19,-913.748 -2095.98,-841.239 C-2116.78,-768.73 -2074.86,-693.092 -2002.35,-672.295 C-1929.84,-651.499 -1854.2,-693.42 -1833.41,-765.929 Z " fill="#4184be" fill-opacity="0.09" stroke-width="2.00" stroke="#000000" stroke-linecap="square" stroke-linejoin="miter" filter="url(#AW6DwG9u)" />			<defs>				<filter id="uejZs3EI" x="-3.72%" y="0.00%" width="122.01%" height="120.01%" filterUnits="objectBoundingBox">					<feOffset dx="14.95" dy="29.90" in="SourceAlpha" result="shadowOffsetOuter1" />					<feGaussianBlur stdDeviation="12.59" in="shadowOffsetOuter1" result="shadowBlurOuter1" />					<feFlood flood-color="#b92121" flood-opacity="0.31" />					<feComposite in2="shadowBlurOuter1" operator="in" />					<feMerge>						<feMergeNode />						<feMergeNode in="SourceGraphic" />					</feMerge>				</filter>			</defs>			<path d="M-1907.27,-645.973 C-1886.47,-718.482 -1928.39,-794.121 -2000.9,-814.917 C-2073.41,-835.713 -2149.05,-793.792 -2169.84,-721.284 C-2190.64,-648.775 -2148.72,-573.136 -2076.21,-552.34 C-2003.7,-531.543 -1928.06,-573.464 -1907.27,-645.973 Z " fill="#4184be" fill-opacity="0.09" stroke-width="2.00" stroke="#000000" stroke-linecap="square" stroke-linejoin="miter" filter="url(#uejZs3EI)" />			<defs>				<filter id="hvZQAvbW" x="-3.72%" y="0.00%" width="122.01%" height="120.01%" filterUnits="objectBoundingBox">					<feOffset dx="14.95" dy="29.90" in="SourceAlpha" result="shadowOffsetOuter1" />					<feGaussianBlur stdDeviation="12.59" in="shadowOffsetOuter1" result="shadowBlurOuter1" />					<feFlood flood-color="#b92121" flood-opacity="0.31" />					<feComposite in2="shadowBlurOuter1" operator="in" />					<feMerge>						<feMergeNode />						<feMergeNode in="SourceGraphic" />					</feMerge>				</filter>			</defs>			<path d="M-1842.17,-528.035 C-1821.37,-600.544 -1863.29,-676.182 -1935.8,-696.979 C-2008.31,-717.775 -2083.95,-675.854 -2104.74,-603.345 C-2125.54,-530.837 -2083.62,-455.198 -2011.11,-434.401 C-1938.6,-413.605 -1862.96,-455.526 -1842.17,-528.035 Z " fill="#4184be" fill-opacity="0.09" stroke-width="2.00" stroke="#000000" stroke-linecap="square" stroke-linejoin="miter" filter="url(#hvZQAvbW)" />			<path d="M-4159.06,1400.29 C-4183.39,1400.15 -4202.52,1408.45 -4216.45,1425.19 C-4229.33,1440.6 -4235.84,1460.39 -4235.98,1484.57 C-4236.16,1516.42 -4227.77,1540.01 -4210.82,1555.36 C-4197.94,1566.97 -4181.97,1572.82 -4162.92,1572.93 C-4140.83,1573.05 -4123.23,1566.12 -4110.13,1552.13 C-4099.2,1540.51 -4092.72,1526.07 -4090.69,1508.82 L-4112.34,1508.7 C-4114.63,1519.48 -4118.07,1528.16 -4122.64,1534.76 C-4131.27,1547.29 -4143.77,1553.5 -4160.14,1553.41 C-4177.92,1553.31 -4191.26,1547.27 -4200.16,1535.27 C-4209.06,1523.28 -4213.45,1507.69 -4213.34,1488.49 C-4213.21,1465.05 -4208.15,1447.69 -4198.15,1436.4 C-4188.16,1425.11 -4175.09,1419.51 -4158.94,1419.6 C-4145.7,1419.67 -4135.43,1422.82 -4128.13,1429.03 C-4120.84,1435.25 -4115.99,1443.65 -4113.6,1454.23 L-4091.95,1454.35 C-4093.13,1440.43 -4099.42,1427.97 -4110.82,1416.97 C-4122.22,1405.96 -4138.3,1400.41 -4159.06,1400.29 Z M-4061.54,1405.3 L-4062.05,1497.37 C-4062.17,1517.54 -4059.54,1533.07 -4054.17,1543.96 C-4044.38,1563.81 -4025.65,1573.81 -3997.97,1573.96 C-3970.29,1574.12 -3951.41,1564.33 -3941.33,1544.59 C-3935.84,1533.76 -3933.04,1518.26 -3932.92,1498.1 L-3932.41,1406.02 L-3954.95,1405.9 L-3955.52,1507.23 C-3955.59,1519.06 -3957.46,1528.47 -3961.15,1535.44 C-3967.99,1548.27 -3980.82,1554.64 -3999.65,1554.53 C-4015.35,1554.45 -4026.47,1548.43 -4033.03,1536.49 C-4037.45,1528.58 -4039.63,1518.67 -4039.56,1506.76 L-4038.99,1405.43 L-4061.54,1405.3 Z M-3898.95,1570.16 L-3793.71,1570.75 L-3793.6,1551.22 L-3876.63,1550.76 L-3875.82,1406.34 L-3898.03,1406.22 L-3898.95,1570.16 Z M-3651.61,1407.59 L-3651.72,1427.13 L-3706.96,1426.82 L-3707.77,1571.23 L-3730.32,1571.11 L-3729.51,1426.69 L-3784.75,1426.38 L-3784.64,1406.85 L-3651.61,1407.59 Z M-3629.73,1407.72 L-3630.25,1499.79 C-3630.36,1519.96 -3627.73,1535.48 -3622.36,1546.38 C-3612.58,1566.22 -3593.85,1576.23 -3566.17,1576.38 C-3538.49,1576.53 -3519.61,1566.74 -3509.53,1547.01 C-3504.04,1536.18 -3501.23,1520.68 -3501.12,1500.52 L-3500.61,1408.44 L-3523.15,1408.31 L-3523.72,1509.65 C-3523.78,1521.48 -3525.66,1530.88 -3529.34,1537.86 C-3536.19,1550.69 -3549.02,1557.06 -3567.85,1556.95 C-3583.54,1556.86 -3594.67,1550.85 -3601.23,1538.91 C-3605.65,1530.99 -3607.82,1521.09 -3607.76,1509.18 L-3607.19,1407.84 L-3629.73,1407.72 Z M-3441.76,1483.88 L-3441.45,1427.86 L-3387.21,1428.16 C-3379.62,1428.2 -3373.56,1429.35 -3369.04,1431.61 C-3360.58,1435.9 -3356.38,1443.88 -3356.45,1455.57 C-3356.51,1466.43 -3359.58,1473.93 -3365.67,1478.06 C-3371.76,1482.19 -3380.01,1484.23 -3390.43,1484.17 L-3441.76,1483.88 Z M-3464.47,1572.6 L-3442.26,1572.72 L-3441.87,1502.41 L-3391.31,1502.69 C-3382.23,1502.74 -3375.58,1503.78 -3371.35,1505.82 C-3363.93,1509.51 -3359.99,1516.71 -3359.53,1527.42 L-3358.34,1554.78 C-3358.08,1561.18 -3357.73,1565.49 -3357.3,1567.73 C-3356.87,1569.96 -3356.28,1571.79 -3355.54,1573.21 L-3328.31,1573.36 L-3328.29,1569.68 C-3331.71,1568.17 -3334.07,1564.81 -3335.38,1559.59 C-3336.18,1556.54 -3336.67,1551.88 -3336.86,1545.63 L-3337.52,1523.64 C-3337.84,1514.12 -3339.61,1507.22 -3342.82,1502.96 C-3346.03,1498.7 -3350.83,1495.26 -3357.21,1492.62 C-3349.9,1488.86 -3344.2,1483.87 -3340.11,1477.64 C-3336.02,1471.42 -3333.95,1463.39 -3333.89,1453.57 C-3333.79,1434.75 -3341.41,1421.79 -3356.78,1414.71 C-3364.87,1411.02 -3375.16,1409.14 -3387.66,1409.07 L-3463.55,1408.65 L-3464.47,1572.6 Z M-3268.9,1506.5 L-3242.04,1434.22 L-3217.56,1506.79 L-3268.9,1506.5 Z M-3316.15,1573.43 L-3293.38,1573.55 L-3275.36,1524.55 L-3210.52,1524.91 L-3194.16,1574.11 L-3169.83,1574.25 L-3228.4,1409.96 L-3253.51,1409.82 L-3316.15,1573.43 Z M-3062.7,1555.87 L-3061.99,1429.98 L-3022.59,1430.2 C-3004.66,1430.3 -2991.69,1435.99 -2983.68,1447.27 C-2975.67,1458.55 -2971.72,1474.35 -2971.84,1494.66 C-2971.87,1499.94 -2972.46,1505.67 -2973.61,1511.84 C-2975.6,1522.17 -2978.81,1530.63 -2983.24,1537.23 C-2988.79,1545.46 -2995.89,1551 -3004.54,1553.85 C-3009.38,1555.39 -3015.56,1556.14 -3023.08,1556.09 L-3062.7,1555.87 Z M-3085.12,1574.72 L-3018.94,1575.09 C-2990.82,1575.25 -2970.92,1562.93 -2959.25,1538.15 C-2952.62,1524.12 -2949.26,1508.4 -2949.16,1490.99 C-2949.03,1468.45 -2954.47,1449.93 -2965.48,1435.43 C-2977.82,1419.37 -2995.26,1411.27 -3017.8,1411.14 L-3084.21,1410.77 L-3085.12,1574.72 Z M-2918.94,1575.65 L-2797.74,1576.33 L-2797.63,1556.8 L-2897.18,1556.24 L-2896.87,1500.66 L-2806.36,1501.17 L-2806.25,1482.2 L-2896.76,1481.69 L-2896.49,1431.91 L-2798.61,1432.46 L-2798.49,1412.37 L-2918.02,1411.7 L-2918.94,1575.65 Z M-2584.88,1413.57 L-2584.99,1433.1 L-2640.24,1432.79 L-2641.04,1577.21 L-2663.59,1577.08 L-2662.78,1432.66 L-2718.02,1432.35 L-2717.92,1412.82 L-2584.88,1413.57 Z M-2560.46,1577.66 L-2538.03,1577.78 L-2537.11,1413.83 L-2559.55,1413.71 L-2560.46,1577.66 Z " fill="#02c8a7" fill-opacity="1.00" />			<defs>				<filter id="rPK6zOlL" x="-3.66%" y="0.00%" width="121.65%" height="119.68%" filterUnits="objectBoundingBox">					<feOffset dx="14.95" dy="29.90" in="SourceAlpha" result="shadowOffsetOuter1" />					<feGaussianBlur stdDeviation="12.59" in="shadowOffsetOuter1" result="shadowBlurOuter1" />					<feFlood flood-color="#4d4d4d" flood-opacity="0.31" />					<feComposite in2="shadowBlurOuter1" operator="in" />					<feMerge>						<feMergeNode />						<feMergeNode in="SourceGraphic" />					</feMerge>				</filter>			</defs>			<path d="M-3711.66,-677.961 C-3690.87,-750.469 -3732.79,-826.108 -3805.3,-846.905 C-3877.81,-867.701 -3953.44,-825.78 -3974.24,-753.271 C-3995.04,-680.763 -3953.12,-605.124 -3880.61,-584.327 C-3808.1,-563.531 -3732.46,-605.452 -3711.66,-677.961 Z " fill="none" stroke-width="6.57" stroke="#f53240" stroke-linecap="square" stroke-linejoin="miter" filter="url(#rPK6zOlL)" />			<defs>				<filter id="kUcVvsyI" x="-3.66%" y="0.00%" width="121.65%" height="119.68%" filterUnits="objectBoundingBox">					<feOffset dx="14.95" dy="29.90" in="SourceAlpha" result="shadowOffsetOuter1" />					<feGaussianBlur stdDeviation="12.59" in="shadowOffsetOuter1" result="shadowBlurOuter1" />					<feFlood flood-color="#4d4d4d" flood-opacity="0.31" />					<feComposite in2="shadowBlurOuter1" operator="in" />					<feMerge>						<feMergeNode />						<feMergeNode in="SourceGraphic" />					</feMerge>				</filter>			</defs>			<path d="M-3778.51,-565.59 C-3757.71,-638.098 -3799.63,-713.737 -3872.14,-734.534 C-3944.65,-755.33 -4020.29,-713.409 -4041.09,-640.9 C-4061.88,-568.392 -4019.96,-492.753 -3947.45,-471.956 C-3874.94,-451.16 -3799.31,-493.081 -3778.51,-565.59 Z " fill="none" stroke-width="6.57" stroke="#f7882f" stroke-linecap="square" stroke-linejoin="miter" filter="url(#kUcVvsyI)" />			<defs>				<filter id="eoKnnWuw" x="-3.66%" y="0.00%" width="121.65%" height="119.68%" filterUnits="objectBoundingBox">					<feOffset dx="14.95" dy="29.90" in="SourceAlpha" result="shadowOffsetOuter1" />					<feGaussianBlur stdDeviation="12.59" in="shadowOffsetOuter1" result="shadowBlurOuter1" />					<feFlood flood-color="#4d4d4d" flood-opacity="0.31" />					<feComposite in2="shadowBlurOuter1" operator="in" />					<feMerge>						<feMergeNode />						<feMergeNode in="SourceGraphic" />					</feMerge>				</filter>			</defs>			<path d="M-3779.47,-799.201 C-3758.67,-871.709 -3800.6,-947.348 -3873.1,-968.144 C-3945.61,-988.941 -4021.25,-947.02 -4042.05,-874.511 C-4062.84,-802.002 -4020.92,-726.364 -3948.41,-705.567 C-3875.91,-684.771 -3800.27,-726.692 -3779.47,-799.201 Z " fill="none" stroke-width="6.57" stroke="#fe7a15" stroke-linecap="square" stroke-linejoin="miter" filter="url(#eoKnnWuw)" />			<defs>				<filter id="hueIS5uw" x="-3.66%" y="0.00%" width="121.65%" height="119.68%" filterUnits="objectBoundingBox">					<feOffset dx="14.95" dy="29.90" in="SourceAlpha" result="shadowOffsetOuter1" />					<feGaussianBlur stdDeviation="12.59" in="shadowOffsetOuter1" result="shadowBlurOuter1" />					<feFlood flood-color="#4d4d4d" flood-opacity="0.31" />					<feComposite in2="shadowBlurOuter1" operator="in" />					<feMerge>						<feMergeNode />						<feMergeNode in="SourceGraphic" />					</feMerge>				</filter>			</defs>			<path d="M-3913.59,-803.484 C-3892.8,-875.992 -3934.72,-951.631 -4007.22,-972.427 C-4079.73,-993.224 -4155.37,-951.303 -4176.17,-878.794 C-4196.97,-806.285 -4155.04,-730.647 -4082.54,-709.85 C-4010.03,-689.054 -3934.39,-730.975 -3913.59,-803.484 Z " fill="none" stroke-width="6.57" stroke="#02c8a7" stroke-linecap="square" stroke-linejoin="miter" filter="url(#hueIS5uw)" />			<defs>				<filter id="IsAGRkEy" x="-3.66%" y="0.00%" width="121.65%" height="119.68%" filterUnits="objectBoundingBox">					<feOffset dx="14.95" dy="29.90" in="SourceAlpha" result="shadowOffsetOuter1" />					<feGaussianBlur stdDeviation="12.59" in="shadowOffsetOuter1" result="shadowBlurOuter1" />					<feFlood flood-color="#4d4d4d" flood-opacity="0.31" />					<feComposite in2="shadowBlurOuter1" operator="in" />					<feMerge>						<feMergeNode />						<feMergeNode in="SourceGraphic" />					</feMerge>				</filter>			</defs>			<path d="M-3987.45,-683.528 C-3966.65,-756.037 -4008.58,-831.675 -4081.08,-852.472 C-4153.59,-873.268 -4229.23,-831.347 -4250.03,-758.838 C-4270.83,-686.33 -4228.9,-610.691 -4156.4,-589.895 C-4083.89,-569.098 -4008.25,-611.019 -3987.45,-683.528 Z " fill="none" stroke-width="6.57" stroke="#7cdbd5" stroke-linecap="square" stroke-linejoin="miter" filter="url(#IsAGRkEy)" />			<defs>				<filter id="pj3NW83Z" x="-3.66%" y="0.00%" width="121.65%" height="119.68%" filterUnits="objectBoundingBox">					<feOffset dx="14.95" dy="29.90" in="SourceAlpha" result="shadowOffsetOuter1" />					<feGaussianBlur stdDeviation="12.59" in="shadowOffsetOuter1" result="shadowBlurOuter1" />					<feFlood flood-color="#4d4d4d" flood-opacity="0.31" />					<feComposite in2="shadowBlurOuter1" operator="in" />					<feMerge>						<feMergeNode />						<feMergeNode in="SourceGraphic" />					</feMerge>				</filter>			</defs>			<path d="M-3922.35,-565.59 C-3901.56,-638.098 -3943.48,-713.737 -4015.99,-734.534 C-4088.49,-755.33 -4164.13,-713.409 -4184.93,-640.9 C-4205.73,-568.392 -4163.81,-492.753 -4091.3,-471.956 C-4018.79,-451.16 -3943.15,-493.081 -3922.35,-565.59 Z " fill="none" stroke-width="6.57" stroke="#f9be02" stroke-linecap="square" stroke-linejoin="miter" filter="url(#pj3NW83Z)" />			<path d="M-3039.61,850.914 L-3039.69,863.161 C-3039.71,868.06 -3040.44,872.139 -3041.86,875.397 C-3043.27,878.655 -3045.04,881.211 -3047.15,883.065 C-3049.49,884.918 -3052.01,886.245 -3054.7,887.046 C-3057.38,887.847 -3059.89,888.241 -3062.23,888.227 C-3070.39,888.18 -3076.03,885.698 -3079.15,880.781 C-3082.28,875.864 -3083.82,869.79 -3083.77,862.558 L-3083.04,735.183 C-3082.99,726.785 -3081.5,719.853 -3078.55,714.388 C-3075.6,708.922 -3069.69,706.215 -3060.83,706.266 C-3054.06,706.305 -3048.71,708.902 -3044.78,714.057 C-3040.84,719.212 -3038.89,725.289 -3038.93,732.288 L-3039,744.185 L-3003.31,744.39 L-3003.23,730.393 C-3003.18,721.762 -3004.59,713.763 -3007.46,706.398 C-3010.34,699.033 -3014.33,692.652 -3019.43,687.257 C-3029.86,676.232 -3043.48,670.672 -3060.27,670.575 C-3068.91,670.525 -3076.79,671.938 -3083.92,674.813 C-3091.05,677.689 -3097.2,681.678 -3102.36,686.78 C-3107.52,691.883 -3111.52,697.926 -3114.36,704.908 C-3117.2,711.891 -3118.65,719.464 -3118.69,727.63 L-3119.48,864.802 C-3119.55,876.233 -3117.79,885.633 -3114.22,893.003 C-3110.65,900.372 -3106.07,906.405 -3100.5,911.103 C-3094.93,915.801 -3088.65,919.104 -3081.66,921.01 C-3074.67,922.917 -3067.8,923.889 -3061.03,923.928 C-3053.1,923.974 -3045.68,922.442 -3038.78,919.332 C-3031.88,916.222 -3025.85,911.999 -3020.69,906.663 C-3015.53,901.327 -3011.47,895.227 -3008.51,888.361 C-3005.55,881.496 -3004.05,874.214 -3004.01,866.516 L-3003.92,851.119 L-3039.61,850.914 Z M-2905.33,745.304 L-2906.02,864.63 C-2906.06,872.562 -2907.38,878.62 -2909.97,882.804 C-2912.56,886.989 -2917.24,889.061 -2924,889.022 C-2929.6,888.99 -2933.91,887.099 -2936.92,883.349 C-2939.93,879.599 -2941.42,874.458 -2941.38,867.926 L-2940.67,745.101 L-2976.37,744.895 L-2977.15,881.018 C-2977.19,888.95 -2976.18,895.663 -2974.11,901.157 C-2972.05,906.651 -2969.27,911.158 -2965.79,914.678 C-2962.31,918.197 -2958.36,920.728 -2953.94,922.27 C-2949.52,923.812 -2945.09,924.595 -2940.66,924.621 C-2932.49,924.668 -2925.77,922.898 -2920.5,919.312 C-2915.23,915.727 -2910.72,911.145 -2906.95,905.568 L-2906.25,905.572 L-2906.35,922.718 L-2870.66,922.924 L-2869.64,745.509 L-2905.33,745.304 Z M-2843.09,875.49 C-2843.15,885.988 -2841.97,894.452 -2839.56,900.881 C-2837.15,907.311 -2833.62,912.288 -2828.97,915.815 C-2824.33,919.574 -2818.74,922.114 -2812.22,923.435 C-2805.7,924.755 -2798.35,925.439 -2790.19,925.486 L-2789.99,891.893 C-2796.75,891.154 -2801.35,889.553 -2803.79,887.089 C-2806.22,884.626 -2807.42,880.011 -2807.38,873.246 L-2806.24,674.136 L-2841.93,673.931 L-2843.09,875.49 Z M-2793,745.95 L-2793.16,773.944 L-2775.32,774.047 L-2775.94,881.825 C-2775.96,886.491 -2775.23,891.336 -2773.75,896.361 C-2772.26,901.385 -2769.89,905.889 -2766.65,909.874 C-2763.41,913.859 -2759.05,917.15 -2753.58,919.748 C-2748.12,922.345 -2741.3,923.668 -2733.13,923.715 L-2718.44,923.799 L-2718.24,890.206 C-2722.21,890.183 -2725.53,890.047 -2728.22,889.799 C-2730.9,889.55 -2733.17,888.837 -2735.03,887.66 C-2736.89,886.483 -2738.22,884.725 -2739.02,882.388 C-2739.82,880.05 -2740.21,876.782 -2740.19,872.583 L-2739.62,774.252 L-2717.58,774.379 L-2717.42,746.385 L-2739.46,746.258 L-2739.15,692.369 L-2774.85,692.163 L-2775.16,746.053 L-2793,745.95 Z M-2632.73,746.872 L-2633.42,866.198 C-2633.47,874.13 -2634.78,880.188 -2637.37,884.372 C-2639.96,888.556 -2644.64,890.629 -2651.41,890.59 C-2657.01,890.558 -2661.31,888.667 -2664.32,884.917 C-2667.33,881.167 -2668.82,876.026 -2668.78,869.494 L-2668.08,746.668 L-2703.77,746.463 L-2704.55,882.586 C-2704.6,890.518 -2703.59,897.231 -2701.52,902.725 C-2699.45,908.219 -2696.68,912.726 -2693.2,916.246 C-2689.72,919.765 -2685.77,922.296 -2681.34,923.837 C-2676.92,925.379 -2672.49,926.163 -2668.06,926.189 C-2659.89,926.235 -2653.18,924.466 -2647.91,920.88 C-2642.64,917.295 -2638.12,912.713 -2634.36,907.136 L-2633.66,907.14 L-2633.75,924.286 L-2598.06,924.491 L-2597.04,747.077 L-2632.73,746.872 Z M-2532.97,924.866 L-2532.37,819.537 C-2532.33,812.305 -2531.13,806.246 -2528.77,801.361 C-2526.4,796.475 -2523.35,792.527 -2519.6,789.515 C-2516.08,786.503 -2512.16,784.367 -2507.84,783.109 C-2503.52,781.851 -2499.49,781.233 -2495.76,781.254 C-2492.02,781.275 -2488.41,781.996 -2484.92,783.416 L-2484.7,745.624 C-2494.97,745.564 -2503.61,747.381 -2510.63,751.073 C-2517.65,754.766 -2524.79,759.857 -2532.06,766.348 L-2531.95,747.451 L-2567.65,747.246 L-2568.67,924.661 L-2532.97,924.866 Z M-2368.16,925.814 L-2367.45,802.289 C-2367.39,792.957 -2368.75,784.784 -2371.51,777.769 C-2374.26,770.755 -2377.96,764.901 -2382.6,760.208 C-2387.48,755.515 -2393.17,751.982 -2399.69,749.612 C-2406.21,747.241 -2413.2,746.035 -2420.66,745.992 C-2428.83,745.945 -2436.19,747.244 -2442.73,749.889 C-2449.28,752.534 -2454.9,756.177 -2459.59,760.815 C-2469.45,770.557 -2474.89,783.357 -2475.91,799.215 L-2441.27,799.414 C-2440.07,793.589 -2437.54,789.171 -2433.67,786.16 C-2429.8,783.15 -2425.54,781.658 -2420.87,781.685 C-2414.1,781.724 -2409.45,783.733 -2406.91,787.714 C-2404.36,791.695 -2403.11,796.718 -2403.14,802.783 L-2403.25,821.329 C-2405.12,821.085 -2406.86,820.959 -2408.5,820.949 C-2410.13,820.94 -2411.53,820.815 -2412.7,820.575 C-2413.86,820.335 -2415.14,820.211 -2416.54,820.203 C-2417.94,820.195 -2419.23,820.188 -2420.39,820.181 C-2431.59,820.117 -2440.81,821.288 -2448.06,823.696 C-2455.3,826.104 -2461.04,829.746 -2465.27,834.62 C-2469.73,839.727 -2472.8,846.067 -2474.48,853.639 C-2476.15,861.212 -2477.02,870.014 -2477.08,880.045 C-2477.13,889.843 -2475.95,897.84 -2473.54,904.036 C-2471.13,910.232 -2467.95,914.975 -2464,918.264 C-2460.05,921.786 -2455.93,924.201 -2451.62,925.509 C-2447.31,926.817 -2443.06,927.483 -2438.86,927.507 C-2430.22,927.556 -2423.51,925.845 -2418.7,922.374 C-2413.9,918.902 -2409.15,913.913 -2404.45,907.408 L-2403.75,907.412 L-2403.85,925.608 L-2368.16,925.814 Z M-2403.55,873.469 C-2403.59,880.701 -2405.32,886.29 -2408.72,890.236 C-2412.13,894.183 -2416.86,896.139 -2422.93,896.104 C-2428.76,896.07 -2433.3,893.944 -2436.54,889.726 C-2439.78,885.509 -2441.38,880.017 -2441.34,873.252 C-2441.29,863.687 -2438.51,857.112 -2433.01,853.528 C-2427.5,849.943 -2420.9,848.173 -2413.2,848.218 C-2410.64,848.232 -2407.37,848.601 -2403.41,849.324 L-2403.55,873.469 Z M-2240.43,803.719 C-2240.39,798.12 -2239.14,793.228 -2236.67,789.043 C-2234.19,784.858 -2229.58,782.785 -2222.81,782.824 C-2217.68,782.853 -2213.43,784.686 -2210.07,788.321 C-2206.71,791.957 -2205.04,796.574 -2205.07,802.173 L-2205.47,871.109 C-2205.51,877.641 -2207.17,882.939 -2210.46,887.002 C-2213.75,891.066 -2218.08,893.083 -2223.44,893.052 C-2229.51,893.017 -2233.93,890.775 -2236.7,886.327 C-2239.48,881.878 -2240.84,876.038 -2240.8,868.806 L-2240.43,803.719 Z M-2170.1,926.953 L-2168.66,677.803 L-2204.36,677.598 L-2204.86,765.43 L-2205.56,765.426 C-2209.49,759.571 -2214.19,755.053 -2219.66,751.872 C-2225.12,748.691 -2231.35,747.081 -2238.35,747.04 C-2247.22,746.989 -2253.87,748.468 -2258.32,751.475 C-2267.92,757.252 -2273.45,765.969 -2274.92,777.625 C-2275.66,783.686 -2276.06,793.132 -2276.13,805.963 L-2276.52,873.5 C-2276.58,883.298 -2276.16,891.115 -2275.26,896.953 C-2274.36,902.791 -2272.87,907.698 -2270.79,911.676 C-2265.03,922.908 -2254.68,928.566 -2239.75,928.652 C-2235.31,928.677 -2231.46,928.233 -2228.19,927.319 C-2224.92,926.404 -2222,925.138 -2219.42,923.52 C-2216.84,921.902 -2214.5,919.99 -2212.39,917.786 C-2210.28,915.582 -2208.05,913.204 -2205.7,910.651 L-2205.79,926.748 L-2170.1,926.953 Z M-2036.76,803.491 C-2036.67,787.627 -2041.26,774.42 -2050.53,763.868 C-2055.17,758.942 -2060.8,755.06 -2067.43,752.223 C-2074.07,749.385 -2081.47,747.943 -2089.63,747.896 C-2100.83,747.831 -2110.35,750.11 -2118.19,754.73 C-2126.03,759.351 -2132.08,765.499 -2136.32,773.173 C-2138.91,777.824 -2140.69,783.179 -2141.66,789.24 C-2142.63,795.3 -2143.13,801.946 -2143.17,809.178 L-2143.51,867.616 C-2143.55,874.848 -2143.12,881.499 -2142.23,887.57 C-2141.33,893.641 -2139.61,899.016 -2137.07,903.697 C-2132.91,911.419 -2126.94,917.636 -2119.15,922.347 C-2111.37,927.057 -2101.87,929.445 -2090.68,929.509 C-2082.51,929.556 -2075.15,928.199 -2068.61,925.437 C-2062.06,922.675 -2056.44,918.858 -2051.74,913.986 C-2042.12,904.476 -2037.27,891.906 -2037.18,876.276 L-2072.87,876.071 C-2073.36,880.034 -2074.72,883.992 -2076.96,887.945 C-2079.2,891.898 -2083.71,893.855 -2090.47,893.817 C-2095.84,893.786 -2100.08,892.245 -2103.22,889.194 C-2106.35,886.143 -2107.9,881.818 -2107.87,876.219 L-2107.73,852.074 L-2037.04,852.481 L-2036.76,803.491 Z M-2107.45,803.784 C-2107.41,797.019 -2105.81,791.954 -2102.64,788.589 C-2099.47,785.225 -2095.2,783.558 -2089.84,783.589 C-2084.47,783.619 -2080.22,785.335 -2077.09,788.736 C-2073.96,792.137 -2072.42,797.22 -2072.46,803.985 L-2072.57,824.281 L-2107.57,824.08 L-2107.45,803.784 Z M-1884.9,928.593 L-1883.67,713.036 L-1842.37,713.274 L-1842.18,679.681 L-1960.46,679 L-1960.65,712.594 L-1919.36,712.831 L-1920.6,928.388 L-1884.9,928.593 Z M-1791.12,929.133 L-1789.69,679.983 L-1825.38,679.777 L-1826.82,928.927 L-1791.12,929.133 Z " fill="#6c5a7b" fill-opacity="1.00" />			<path d="M-2454.14,2547.01 L-2454.26,2563.35 C-2454.31,2569.89 -2455.28,2575.33 -2457.18,2579.67 C-2459.08,2584.01 -2461.44,2587.42 -2464.26,2589.89 C-2467.39,2592.36 -2470.75,2594.12 -2474.34,2595.19 C-2477.92,2596.25 -2481.27,2596.77 -2484.39,2596.75 C-2495.28,2596.67 -2502.81,2593.35 -2506.96,2586.78 C-2511.12,2580.21 -2513.16,2572.1 -2513.09,2562.45 L-2511.85,2392.5 C-2511.77,2381.3 -2509.75,2372.05 -2505.81,2364.77 C-2501.87,2357.48 -2493.98,2353.88 -2482.15,2353.96 C-2473.13,2354.03 -2465.99,2357.51 -2460.75,2364.39 C-2455.51,2371.28 -2452.92,2379.39 -2452.99,2388.73 L-2453.11,2404.6 L-2405.48,2404.95 L-2405.35,2386.27 C-2405.26,2374.76 -2407.13,2364.08 -2410.95,2354.25 C-2414.77,2344.42 -2420.08,2335.9 -2426.87,2328.69 C-2440.77,2313.96 -2458.93,2306.51 -2481.34,2306.34 C-2492.86,2306.26 -2503.37,2308.13 -2512.9,2311.95 C-2522.42,2315.77 -2530.63,2321.08 -2537.53,2327.88 C-2544.42,2334.68 -2549.77,2342.73 -2553.58,2352.04 C-2557.38,2361.35 -2559.32,2371.46 -2559.4,2382.35 L-2560.73,2565.37 C-2560.85,2580.63 -2558.52,2593.17 -2553.77,2603.01 C-2549.02,2612.85 -2542.93,2620.91 -2535.5,2627.19 C-2528.08,2633.47 -2519.71,2637.89 -2510.39,2640.45 C-2501.07,2643.01 -2491.89,2644.32 -2482.87,2644.38 C-2472.28,2644.46 -2462.39,2642.43 -2453.17,2638.3 C-2443.96,2634.16 -2435.9,2628.54 -2429,2621.43 C-2422.1,2614.32 -2416.67,2606.19 -2412.72,2597.04 C-2408.76,2587.88 -2406.74,2578.17 -2406.67,2567.9 L-2406.52,2547.35 L-2454.14,2547.01 Z M-2274.75,2406.37 L-2275.91,2565.58 C-2275.99,2576.16 -2277.76,2584.24 -2281.23,2589.82 C-2284.69,2595.4 -2290.94,2598.16 -2299.96,2598.09 C-2307.43,2598.04 -2313.17,2595.5 -2317.18,2590.49 C-2321.19,2585.48 -2323.17,2578.62 -2323.1,2569.91 L-2321.91,2406.03 L-2369.53,2405.68 L-2370.86,2587.3 C-2370.93,2597.89 -2369.6,2606.84 -2366.85,2614.18 C-2364.1,2621.51 -2360.41,2627.53 -2355.78,2632.24 C-2351.14,2636.94 -2345.87,2640.32 -2339.97,2642.39 C-2334.08,2644.46 -2328.17,2645.51 -2322.25,2645.55 C-2311.36,2645.63 -2302.39,2643.29 -2295.36,2638.51 C-2288.32,2633.74 -2282.28,2627.64 -2277.25,2620.2 L-2276.31,2620.21 L-2276.48,2643.09 L-2228.85,2643.43 L-2227.13,2406.72 L-2274.75,2406.37 Z M-2191.97,2580.2 C-2192.08,2594.21 -2190.52,2605.5 -2187.32,2614.09 C-2184.11,2622.67 -2179.41,2629.32 -2173.22,2634.03 C-2167.03,2639.06 -2159.59,2642.46 -2150.88,2644.23 C-2142.18,2646.01 -2132.38,2646.94 -2121.49,2647.02 L-2121.16,2602.19 C-2130.18,2601.19 -2136.31,2599.05 -2139.56,2595.76 C-2142.8,2592.46 -2144.39,2586.31 -2144.33,2577.28 L-2142.39,2311.61 L-2190.02,2311.27 L-2191.97,2580.2 Z M-2124.88,2407.46 L-2125.15,2444.81 L-2101.34,2444.99 L-2102.39,2588.79 C-2102.43,2595.02 -2101.47,2601.48 -2099.49,2608.19 C-2097.52,2614.9 -2094.37,2620.91 -2090.05,2626.23 C-2085.73,2631.56 -2079.93,2635.96 -2072.64,2639.43 C-2065.35,2642.91 -2056.26,2644.69 -2045.36,2644.77 L-2025.75,2644.91 L-2025.43,2600.09 C-2030.72,2600.05 -2035.15,2599.86 -2038.73,2599.53 C-2042.31,2599.19 -2045.34,2598.23 -2047.82,2596.66 C-2050.29,2595.08 -2052.07,2592.74 -2053.13,2589.62 C-2054.2,2586.5 -2054.71,2582.13 -2054.67,2576.53 L-2053.72,2445.33 L-2024.3,2445.55 L-2024.03,2408.2 L-2053.45,2407.98 L-2052.92,2336.08 L-2100.55,2335.73 L-2101.07,2407.63 L-2124.88,2407.46 Z M-1911.04,2409.02 L-1912.2,2568.23 C-1912.28,2578.81 -1914.05,2586.89 -1917.51,2592.47 C-1920.98,2598.05 -1927.22,2600.81 -1936.25,2600.74 C-1943.72,2600.69 -1949.46,2598.15 -1953.47,2593.14 C-1957.48,2588.13 -1959.46,2581.27 -1959.39,2572.56 L-1958.2,2408.68 L-2005.82,2408.33 L-2007.14,2589.95 C-2007.22,2600.53 -2005.89,2609.49 -2003.14,2616.83 C-2000.39,2624.16 -1996.7,2630.18 -1992.06,2634.89 C-1987.43,2639.59 -1982.16,2642.97 -1976.26,2645.04 C-1970.36,2647.11 -1964.46,2648.16 -1958.54,2648.2 C-1947.65,2648.28 -1938.68,2645.94 -1931.64,2641.16 C-1924.6,2636.39 -1918.57,2630.28 -1913.53,2622.85 L-1912.6,2622.86 L-1912.77,2645.73 L-1865.14,2646.08 L-1863.42,2409.37 L-1911.04,2409.02 Z M-1778.3,2646.71 L-1777.28,2506.18 C-1777.21,2496.53 -1775.59,2488.45 -1772.43,2481.93 C-1769.27,2475.42 -1765.19,2470.16 -1760.18,2466.15 C-1755.48,2462.14 -1750.24,2459.29 -1744.47,2457.62 C-1738.7,2455.95 -1733.33,2455.14 -1728.34,2455.17 C-1723.36,2455.21 -1718.55,2456.18 -1713.89,2458.08 L-1713.52,2407.66 C-1727.22,2407.56 -1738.75,2409.96 -1748.13,2414.87 C-1757.5,2419.79 -1767.05,2426.57 -1776.76,2435.21 L-1776.58,2410 L-1824.2,2409.65 L-1825.92,2646.37 L-1778.3,2646.71 Z M-1558.39,2648.32 L-1557.19,2483.5 C-1557.1,2471.05 -1558.89,2460.14 -1562.56,2450.78 C-1566.22,2441.41 -1571.15,2433.59 -1577.33,2427.32 C-1583.82,2421.05 -1591.41,2416.33 -1600.1,2413.15 C-1608.8,2409.97 -1618.12,2408.35 -1628.08,2408.28 C-1638.98,2408.2 -1648.79,2409.92 -1657.54,2413.43 C-1666.28,2416.95 -1673.78,2421.8 -1680.05,2427.98 C-1693.22,2440.95 -1700.51,2458.02 -1701.91,2479.18 L-1655.68,2479.52 C-1654.07,2471.75 -1650.68,2465.86 -1645.52,2461.85 C-1640.35,2457.84 -1634.65,2455.86 -1628.43,2455.9 C-1619.4,2455.97 -1613.2,2458.66 -1609.81,2463.97 C-1606.43,2469.29 -1604.76,2476 -1604.82,2484.09 L-1605,2508.83 C-1607.49,2508.5 -1609.82,2508.33 -1612,2508.32 C-1614.18,2508.3 -1616.05,2508.13 -1617.6,2507.81 C-1619.16,2507.49 -1620.87,2507.32 -1622.73,2507.3 C-1624.6,2507.29 -1626.31,2507.28 -1627.87,2507.27 C-1642.81,2507.16 -1655.12,2508.7 -1664.79,2511.9 C-1674.46,2515.1 -1682.12,2519.95 -1687.77,2526.44 C-1693.74,2533.25 -1697.85,2541.7 -1700.1,2551.8 C-1702.35,2561.9 -1703.53,2573.64 -1703.62,2587.03 C-1703.72,2600.1 -1702.16,2610.77 -1698.96,2619.04 C-1695.75,2627.32 -1691.51,2633.65 -1686.25,2638.05 C-1681,2642.75 -1675.49,2645.98 -1669.75,2647.74 C-1664,2649.49 -1658.33,2650.39 -1652.72,2650.43 C-1641.21,2650.51 -1632.24,2648.24 -1625.83,2643.62 C-1619.41,2639 -1613.06,2632.35 -1606.77,2623.68 L-1605.84,2623.69 L-1606.01,2647.97 L-1558.39,2648.32 Z M-1605.51,2578.4 C-1605.58,2588.05 -1607.89,2595.5 -1612.44,2600.76 C-1616.99,2606.02 -1623.32,2608.62 -1631.41,2608.56 C-1639.19,2608.51 -1645.24,2605.66 -1649.56,2600.03 C-1653.87,2594.39 -1656,2587.06 -1655.93,2578.03 C-1655.84,2565.27 -1652.12,2556.51 -1644.77,2551.73 C-1637.42,2546.96 -1628.61,2544.61 -1618.34,2544.69 C-1614.91,2544.71 -1610.56,2545.21 -1605.27,2546.19 L-1605.51,2578.4 Z M-1387.71,2485.67 C-1387.66,2478.2 -1385.98,2471.67 -1382.67,2466.1 C-1379.36,2460.52 -1373.19,2457.76 -1364.17,2457.83 C-1357.32,2457.88 -1351.65,2460.33 -1347.18,2465.19 C-1342.7,2470.04 -1340.49,2476.21 -1340.54,2483.68 L-1341.21,2575.66 C-1341.27,2584.37 -1343.5,2591.44 -1347.9,2596.85 C-1352.3,2602.27 -1358.08,2604.95 -1365.24,2604.9 C-1373.33,2604.84 -1379.22,2601.84 -1382.91,2595.9 C-1386.61,2589.96 -1388.42,2582.16 -1388.35,2572.51 L-1387.71,2485.67 Z M-1294.13,2650.24 L-1291.71,2317.81 L-1339.33,2317.46 L-1340.18,2434.65 L-1341.12,2434.65 C-1346.35,2426.83 -1352.61,2420.79 -1359.9,2416.53 C-1367.18,2412.28 -1375.49,2410.12 -1384.83,2410.05 C-1396.66,2409.96 -1405.54,2411.92 -1411.49,2415.93 C-1424.31,2423.61 -1431.7,2435.23 -1433.69,2450.78 C-1434.68,2458.87 -1435.24,2471.47 -1435.36,2488.59 L-1436.02,2578.7 C-1436.11,2591.77 -1435.57,2602.21 -1434.38,2610 C-1433.19,2617.79 -1431.21,2624.34 -1428.45,2629.65 C-1420.78,2644.65 -1406.98,2652.22 -1387.06,2652.37 C-1381.15,2652.41 -1376.01,2651.82 -1371.64,2650.61 C-1367.27,2649.4 -1363.37,2647.71 -1359.93,2645.56 C-1356.49,2643.4 -1353.36,2640.86 -1350.54,2637.92 C-1347.71,2634.99 -1344.73,2631.82 -1341.6,2628.42 L-1341.75,2649.89 L-1294.13,2650.24 Z M-1115.97,2485.78 C-1115.81,2464.61 -1121.91,2446.98 -1134.26,2432.89 C-1140.44,2426.3 -1147.95,2421.11 -1156.79,2417.31 C-1165.63,2413.51 -1175.5,2411.57 -1186.4,2411.49 C-1201.34,2411.39 -1214.05,2414.41 -1224.52,2420.56 C-1234.99,2426.7 -1243.07,2434.89 -1248.74,2445.13 C-1252.21,2451.33 -1254.6,2458.47 -1255.9,2466.55 C-1257.21,2474.64 -1257.89,2483.5 -1257.96,2493.15 L-1258.53,2571.12 C-1258.6,2580.77 -1258.05,2589.65 -1256.86,2597.75 C-1255.67,2605.85 -1253.39,2613.03 -1250.01,2619.28 C-1244.48,2629.59 -1236.53,2637.9 -1226.15,2644.2 C-1215.77,2650.5 -1203.1,2653.7 -1188.16,2653.81 C-1177.27,2653.89 -1167.45,2652.1 -1158.71,2648.42 C-1149.97,2644.75 -1142.46,2639.67 -1136.18,2633.18 C-1123.33,2620.51 -1116.83,2603.75 -1116.67,2582.9 L-1164.3,2582.55 C-1164.96,2587.84 -1166.79,2593.11 -1169.78,2598.38 C-1172.78,2603.65 -1178.79,2606.26 -1187.82,2606.19 C-1194.98,2606.14 -1200.64,2604.07 -1204.81,2600 C-1208.99,2595.92 -1211.05,2590.15 -1210.99,2582.68 L-1210.76,2550.46 L-1116.44,2551.15 L-1115.97,2485.78 Z M-1210.29,2486.03 C-1210.22,2477 -1208.07,2470.25 -1203.84,2465.76 C-1199.6,2461.28 -1193.9,2459.07 -1186.75,2459.12 C-1179.59,2459.17 -1173.92,2461.47 -1169.75,2466.01 C-1165.58,2470.56 -1163.53,2477.34 -1163.6,2486.37 L-1163.79,2513.45 L-1210.48,2513.11 L-1210.29,2486.03 Z M-913.608,2653.01 L-911.513,2365.4 L-856.419,2365.8 L-856.093,2320.98 L-1013.9,2319.83 L-1014.23,2364.66 L-959.136,2365.06 L-961.231,2652.66 L-913.608,2653.01 Z M-788.479,2653.92 L-786.058,2321.49 L-833.682,2321.15 L-836.103,2653.58 L-788.479,2653.92 Z " fill="#3e3d40" fill-opacity="1.00" />			<path d="M-48.6949,52.9332 C-37.4456,41.6839 -37.4456,23.4452 -48.6949,12.196 C-59.9441,0.946668 -78.1828,0.946667 -89.4321,12.196 C-100.681,23.4452 -100.681,41.6839 -89.4321,52.9332 C-78.1828,64.1825 -59.9441,64.1825 -48.6949,52.9332 Z " fill="none" stroke-width="1.75" stroke="#71b7f3" stroke-linecap="square" stroke-linejoin="miter" />			<path d="M-24.9888,9.74148 C-13.7395,-1.50781 -13.7395,-19.7465 -24.9888,-30.9958 C-36.238,-42.2451 -54.4767,-42.2451 -65.726,-30.9958 C-76.9753,-19.7465 -76.9753,-1.50781 -65.726,9.74148 C-54.4767,20.9908 -36.238,20.9908 -24.9888,9.74148 Z " fill="none" stroke-width="1.75" stroke="#02c8a7" stroke-linecap="square" stroke-linejoin="miter" />			<path d="M-24.9888,39.0865 C-13.7395,27.8373 -13.7395,9.59857 -24.9888,-1.65072 C-36.238,-12.9 -54.4767,-12.9 -65.726,-1.65072 C-76.9753,9.59857 -76.9753,27.8373 -65.726,39.0865 C-54.4767,50.3358 -36.238,50.3358 -24.9888,39.0865 Z " fill="none" stroke-width="1.75" stroke="#02c8a7" stroke-linecap="square" stroke-linejoin="miter" />			<path d="M-75.1802,9.81602 C-63.9309,-1.43327 -63.9309,-19.672 -75.1802,-30.9212 C-86.4295,-42.1705 -104.668,-42.1705 -115.917,-30.9212 C-127.167,-19.672 -127.167,-1.43327 -115.917,9.81602 C-104.668,21.0653 -86.4295,21.0653 -75.1802,9.81602 Z " fill="none" stroke-width="1.75" stroke="#02c8a7" stroke-linecap="square" stroke-linejoin="miter" />			<path d="M-49.2917,-4.76063 C-38.0424,-16.0099 -38.0424,-34.2486 -49.2917,-45.4979 C-60.541,-56.7472 -78.7797,-56.7472 -90.029,-45.4979 C-101.278,-34.2486 -101.278,-16.0099 -90.029,-4.76063 C-78.7797,6.48866 -60.541,6.48866 -49.2917,-4.76063 Z " fill="none" stroke-width="1.75" stroke="#71b7f3" stroke-linecap="square" stroke-linejoin="miter" />			<path d="M-75.2292,38.2271 C-63.9799,26.9779 -63.9799,8.73917 -75.2292,-2.51012 C-86.4785,-13.7594 -104.717,-13.7594 -115.966,-2.51012 C-127.216,8.73917 -127.216,26.9779 -115.966,38.2271 C-104.717,49.4764 -86.4785,49.4764 -75.2292,38.2271 Z " fill="none" stroke-width="1.75" stroke="#02c8a7" stroke-linecap="square" stroke-linejoin="miter" />			<path d="M-309.971,55.6979 C-308.203,49.1766 -312.057,42.4567 -318.578,40.6887 C-325.099,38.9207 -331.819,42.774 -333.587,49.2953 C-335.355,55.8166 -331.502,62.5364 -324.981,64.3045 C-318.459,66.0725 -311.739,62.2192 -309.971,55.6979 Z " fill="#ffa100" fill-opacity="0.20" />			<path d="M-315.812,65.8495 C-314.044,59.3282 -317.897,52.6084 -324.418,50.8403 C-330.94,49.0723 -337.66,52.9256 -339.428,59.4469 C-341.196,65.9682 -337.342,72.688 -330.821,74.4561 C-324.3,76.2241 -317.58,72.3708 -315.812,65.8495 Z " fill="#ffa100" fill-opacity="0.20" />			<path d="M-316.203,44.9276 C-314.435,38.4063 -318.288,31.6865 -324.809,29.9184 C-331.331,28.1504 -338.05,32.0037 -339.818,38.525 C-341.586,45.0463 -337.733,51.7661 -331.212,53.5342 C-324.691,55.3022 -317.971,51.4489 -316.203,44.9276 Z " fill="#ffa100" fill-opacity="0.20" />			<path d="M-328.221,44.719 C-326.453,38.1977 -330.306,31.4778 -336.827,29.7098 C-343.349,27.9418 -350.068,31.795 -351.836,38.3164 C-353.604,44.8377 -349.751,51.5575 -343.23,53.3255 C-336.709,55.0936 -329.989,51.2403 -328.221,44.719 Z " fill="#ffa100" fill-opacity="0.20" />			<path d="M-334.679,55.559 C-332.911,49.0377 -336.765,42.3179 -343.286,40.5499 C-349.807,38.7818 -356.527,42.6351 -358.295,49.1564 C-360.063,55.6777 -356.21,62.3976 -349.689,64.1656 C-343.167,65.9336 -336.447,62.0803 -334.679,55.559 Z " fill="#ffa100" fill-opacity="0.20" />			<path d="M-328.695,66.0371 C-326.927,59.5158 -330.78,52.796 -337.302,51.028 C-343.823,49.2599 -350.543,53.1132 -352.311,59.6345 C-354.079,66.1558 -350.226,72.8757 -343.704,74.6437 C-337.183,76.4117 -330.463,72.5584 -328.695,66.0371 Z " fill="#ffa100" fill-opacity="0.20" />			<path d="M93.782,329.269 C96.2546,320.499 91.1494,311.385 82.3792,308.912 C73.609,306.44 64.4949,311.545 62.0223,320.315 C59.5497,329.085 64.6549,338.199 73.4251,340.672 C82.1953,343.145 91.3094,338.039 93.782,329.269 Z " fill="#f53240" fill-opacity="1.00" />			<path d="M85.5249,314.661 C87.9975,305.891 82.8923,296.776 74.1221,294.304 C65.3519,291.831 56.2378,296.936 53.7652,305.707 C51.2926,314.477 56.3978,323.591 65.168,326.064 C73.9382,328.536 83.0523,323.431 85.5249,314.661 Z " fill="#7cdbd5" fill-opacity="1.00" />			<path d="M85.7685,342.88 C88.2411,334.11 83.1359,324.995 74.3657,322.523 C65.5955,320.05 56.4814,325.155 54.0088,333.926 C51.5362,342.696 56.6415,351.81 65.4116,354.283 C74.1818,356.755 83.2959,351.65 85.7685,342.88 Z " fill="#f9be02" fill-opacity="1.00" />			<path d="M69.3212,314.217 C71.7938,305.446 66.6886,296.332 57.9184,293.86 C49.1482,291.387 40.0341,296.492 37.5615,305.262 C35.0889,314.033 40.1941,323.147 48.9643,325.619 C57.7345,328.092 66.8486,322.987 69.3212,314.217 Z " fill="#f9be02" fill-opacity="1.00" />			<path d="M60.4645,328.747 C62.9371,319.977 57.8319,310.863 49.0617,308.39 C40.2915,305.918 31.1774,311.023 28.7048,319.793 C26.2322,328.563 31.3374,337.677 40.1076,340.15 C48.8778,342.623 57.9919,337.517 60.4645,328.747 Z " fill="#f53240" fill-opacity="1.00" />			<path d="M68.3926,342.958 C70.8652,334.188 65.76,325.074 56.9898,322.601 C48.2196,320.129 39.1055,325.234 36.6329,334.004 C34.1603,342.774 39.2655,351.888 48.0357,354.361 C56.8059,356.834 65.92,351.728 68.3926,342.958 Z " fill="#02c8a7" fill-opacity="1.00" />			<path d="M99.3178,331.127 L99.316,332.607 C99.3152,333.199 99.2301,333.692 99.0605,334.086 C98.8909,334.48 98.6792,334.79 98.4253,335.015 C98.1432,335.24 97.84,335.402 97.5158,335.5 C97.1916,335.598 96.8886,335.647 96.6068,335.647 C95.6205,335.646 94.9374,335.349 94.5577,334.757 C94.178,334.165 93.9887,333.432 93.9898,332.558 L94.0088,317.171 C94.0101,316.157 94.1872,315.318 94.5403,314.657 C94.8934,313.995 95.6054,313.665 96.6762,313.666 C97.4935,313.667 98.1413,313.978 98.6196,314.598 C99.0979,315.219 99.3365,315.952 99.3355,316.797 L99.3337,318.234 L103.645,318.24 L103.648,316.549 C103.649,315.506 103.474,314.541 103.123,313.653 C102.772,312.765 102.286,311.996 101.667,311.347 C100.401,310.021 98.7529,309.357 96.7239,309.354 C95.6811,309.353 94.7298,309.528 93.8699,309.879 C93.0099,310.23 92.2695,310.715 91.6488,311.335 C91.028,311.954 90.5481,312.686 90.2088,313.531 C89.8696,314.376 89.6994,315.292 89.6982,316.278 L89.6777,332.849 C89.676,334.229 89.893,335.364 90.3287,336.252 C90.7644,337.14 91.3201,337.867 91.9957,338.431 C92.6714,338.996 93.4318,339.391 94.277,339.618 C95.1221,339.844 95.9533,339.958 96.7706,339.959 C97.7287,339.96 98.6237,339.771 99.4555,339.392 C100.287,339.012 101.014,338.499 101.634,337.851 C102.255,337.204 102.742,336.465 103.096,335.634 C103.449,334.803 103.626,333.923 103.627,332.993 L103.629,331.133 L99.3178,331.127 Z M115.481,318.297 L115.464,332.711 C115.462,333.669 115.307,334.402 114.996,334.909 C114.685,335.416 114.121,335.669 113.304,335.668 C112.628,335.667 112.107,335.441 111.741,334.989 C111.375,334.538 111.193,333.918 111.194,333.129 L111.212,318.291 L106.9,318.286 L106.88,334.73 C106.879,335.688 107.005,336.498 107.257,337.161 C107.51,337.823 107.848,338.366 108.27,338.79 C108.692,339.213 109.171,339.516 109.706,339.7 C110.241,339.884 110.777,339.976 111.312,339.977 C112.298,339.978 113.109,339.761 113.743,339.325 C114.378,338.889 114.921,338.333 115.373,337.657 L115.458,337.657 L115.455,339.728 L119.767,339.734 L119.793,318.302 L115.481,318.297 Z M123.071,333.989 C123.069,335.257 123.216,336.279 123.511,337.054 C123.806,337.829 124.235,338.429 124.798,338.852 C125.361,339.304 126.037,339.608 126.826,339.764 C127.615,339.92 128.502,339.998 129.489,339.999 L129.494,335.941 C128.677,335.856 128.12,335.665 127.825,335.369 C127.529,335.072 127.382,334.516 127.383,333.698 L127.413,309.646 L123.101,309.64 L123.071,333.989 Z M129.051,318.313 L129.046,321.695 L131.202,321.698 L131.186,334.718 C131.186,335.281 131.276,335.866 131.459,336.472 C131.641,337.078 131.929,337.621 132.323,338.101 C132.717,338.58 133.245,338.975 133.907,339.286 C134.569,339.597 135.393,339.753 136.379,339.754 L138.155,339.756 L138.16,335.698 C137.681,335.698 137.279,335.683 136.955,335.655 C136.631,335.626 136.356,335.541 136.131,335.4 C135.906,335.259 135.744,335.047 135.646,334.765 C135.548,334.483 135.499,334.089 135.499,333.582 L135.514,321.703 L138.177,321.706 L138.181,318.325 L135.518,318.321 L135.526,311.812 L131.215,311.806 L131.206,318.316 L129.051,318.313 Z M148.411,318.337 L148.393,332.752 C148.392,333.71 148.236,334.443 147.926,334.95 C147.615,335.456 147.051,335.709 146.234,335.708 C145.557,335.708 145.036,335.481 144.671,335.03 C144.305,334.579 144.122,333.959 144.123,333.169 L144.142,318.332 L139.83,318.327 L139.81,334.77 C139.808,335.729 139.934,336.539 140.187,337.202 C140.44,337.864 140.777,338.407 141.2,338.83 C141.622,339.254 142.1,339.557 142.636,339.741 C143.171,339.925 143.706,340.017 144.242,340.018 C145.228,340.019 146.038,339.801 146.673,339.365 C147.308,338.929 147.851,338.374 148.303,337.698 L148.387,337.698 L148.385,339.769 L152.696,339.774 L152.723,318.343 L148.411,318.337 Z M160.559,339.784 L160.575,327.06 C160.576,326.187 160.717,325.454 161,324.863 C161.283,324.271 161.649,323.793 162.101,323.427 C162.524,323.061 162.996,322.801 163.518,322.647 C164.039,322.492 164.526,322.415 164.977,322.416 C165.427,322.417 165.864,322.502 166.287,322.671 L166.292,318.106 C165.052,318.104 164.009,318.329 163.163,318.778 C162.317,319.228 161.457,319.847 160.582,320.635 L160.585,318.352 L156.274,318.347 L156.247,339.779 L160.559,339.784 Z M180.469,339.809 L180.487,324.887 C180.489,323.76 180.321,322.773 179.984,321.927 C179.646,321.081 179.196,320.376 178.634,319.812 C178.042,319.248 177.352,318.824 176.564,318.541 C175.775,318.259 174.93,318.117 174.028,318.115 C173.042,318.114 172.154,318.275 171.364,318.598 C170.575,318.921 169.898,319.364 169.334,319.927 C168.149,321.109 167.498,322.659 167.383,324.575 L171.568,324.58 C171.71,323.876 172.014,323.341 172.479,322.975 C172.945,322.609 173.459,322.426 174.023,322.427 C174.84,322.428 175.403,322.668 175.713,323.148 C176.022,323.627 176.176,324.233 176.175,324.966 L176.173,327.207 C175.947,327.178 175.736,327.164 175.539,327.163 C175.341,327.163 175.172,327.149 175.031,327.121 C174.891,327.092 174.736,327.078 174.566,327.078 C174.397,327.078 174.242,327.077 174.101,327.077 C172.749,327.075 171.635,327.222 170.761,327.517 C169.887,327.812 169.196,328.255 168.688,328.846 C168.152,329.465 167.785,330.233 167.587,331.148 C167.388,332.064 167.288,333.128 167.287,334.339 C167.285,335.523 167.432,336.488 167.727,337.236 C168.022,337.983 168.409,338.554 168.887,338.949 C169.366,339.372 169.866,339.662 170.387,339.817 C170.908,339.973 171.422,340.051 171.93,340.052 C172.972,340.053 173.783,339.843 174.361,339.421 C174.939,338.999 175.511,338.394 176.075,337.605 L176.16,337.605 L176.157,339.803 L180.469,339.809 Z M176.165,333.505 C176.164,334.379 175.959,335.055 175.549,335.533 C175.14,336.012 174.569,336.251 173.836,336.25 C173.132,336.249 172.583,335.995 172.189,335.487 C171.795,334.979 171.598,334.317 171.599,333.499 C171.601,332.344 171.933,331.548 172.596,331.112 C173.259,330.676 174.055,330.459 174.985,330.46 C175.295,330.46 175.689,330.503 176.168,330.588 L176.165,333.505 Z M195.832,324.99 C195.833,324.314 195.981,323.722 196.278,323.216 C196.574,322.709 197.131,322.456 197.948,322.457 C198.568,322.457 199.082,322.677 199.491,323.114 C199.899,323.551 200.102,324.108 200.101,324.784 L200.091,333.112 C200.09,333.901 199.892,334.542 199.497,335.034 C199.102,335.527 198.58,335.773 197.932,335.772 C197.199,335.771 196.664,335.503 196.327,334.967 C195.989,334.431 195.821,333.727 195.822,332.853 L195.832,324.99 Z M204.395,339.838 L204.432,309.741 L200.12,309.736 L200.107,320.346 L200.022,320.346 C199.544,319.641 198.974,319.097 198.312,318.716 C197.651,318.335 196.897,318.144 196.052,318.143 C194.981,318.141 194.177,318.324 193.641,318.689 C192.485,319.392 191.821,320.448 191.651,321.857 C191.565,322.59 191.522,323.731 191.52,325.281 L191.51,333.439 C191.508,334.623 191.563,335.567 191.675,336.272 C191.787,336.976 191.969,337.569 192.222,338.048 C192.925,339.401 194.179,340.079 195.982,340.082 C196.518,340.082 196.983,340.026 197.377,339.914 C197.772,339.802 198.124,339.647 198.435,339.451 C198.745,339.254 199.027,339.022 199.281,338.754 C199.535,338.487 199.803,338.198 200.085,337.889 L200.083,339.833 L204.395,339.838 Z M220.434,324.852 C220.436,322.935 219.875,321.342 218.749,320.073 C218.186,319.48 217.503,319.015 216.701,318.675 C215.898,318.336 215.003,318.166 214.017,318.165 C212.664,318.163 211.516,318.444 210.571,319.006 C209.626,319.569 208.899,320.314 208.391,321.244 C208.08,321.807 207.868,322.455 207.755,323.187 C207.641,323.92 207.584,324.723 207.582,325.597 L207.574,332.656 C207.573,333.53 207.628,334.333 207.74,335.066 C207.852,335.799 208.062,336.447 208.372,337.011 C208.878,337.942 209.602,338.689 210.546,339.254 C211.489,339.819 212.637,340.102 213.99,340.104 C214.976,340.105 215.864,339.937 216.654,339.6 C217.443,339.263 218.12,338.799 218.684,338.207 C219.841,337.053 220.421,335.532 220.423,333.644 L216.111,333.639 C216.054,334.118 215.892,334.597 215.624,335.076 C215.355,335.554 214.812,335.793 213.995,335.792 C213.347,335.791 212.833,335.608 212.453,335.241 C212.073,334.874 211.883,334.352 211.884,333.676 L211.888,330.759 L220.427,330.77 L220.434,324.852 Z M211.895,324.926 C211.896,324.108 212.087,323.496 212.468,323.088 C212.849,322.679 213.363,322.476 214.012,322.477 C214.66,322.477 215.174,322.682 215.554,323.091 C215.934,323.501 216.123,324.114 216.122,324.931 L216.119,327.383 L211.892,327.377 L211.895,324.926 Z M238.846,339.881 L238.878,313.842 L243.866,313.848 L243.871,309.79 L229.583,309.772 L229.578,313.83 L234.566,313.836 L234.534,339.876 L238.846,339.881 Z M250.175,339.895 L250.212,309.798 L245.9,309.792 L245.863,339.89 L250.175,339.895 Z " fill="#4d4d4d" fill-opacity="1.00" />			<path d="M123.99,-171.757 C125.787,-164.509 132.197,-158.938 139.685,-158.518 C149.749,-157.8 158.195,-165.887 158.195,-176.01 C158.195,-176.61 158.136,-177.328 158.016,-178.047 C157.776,-179.665 157.177,-181.402 156.398,-182.84 L140.883,-210.456 L125.248,-182.66 C124.17,-180.863 123.631,-178.826 123.511,-176.729 C123.391,-175.172 123.571,-173.375 123.99,-171.757 Z " fill="#0191b4" fill-opacity="1.00" stroke-width="2.00" stroke="#0191b4" stroke-linecap="square" stroke-linejoin="miter" />			<path d="M20.784,-4.00312e-07 L20.784,-5.77291 L9.35142,-5.77291 L9.35142,-17.6017 L19.3125,-17.6017 L19.3125,-23.0351 L9.35142,-23.0351 L9.35142,-34.8639 L20.784,-34.8639 L20.784,-40.2972 L3.5785,-40.2972 L3.5785,-5.62788e-07 L20.784,-4.00312e-07 Z M30.4622,-34.8639 C32.4619,-34.8639 33.8203,-34.3356 34.5372,-33.2791 C34.8767,-32.7132 35.1031,-32.0434 35.2163,-31.2699 C35.3295,-30.4965 35.3861,-29.6003 35.3861,-28.5816 C35.3861,-27.5628 35.3295,-26.6667 35.2163,-25.8932 C35.1031,-25.1197 34.8956,-24.4689 34.5938,-23.9406 C34.2542,-23.4124 33.7825,-23.0068 33.1788,-22.7238 C32.5751,-22.4408 31.7639,-22.2993 30.7452,-22.2993 L27.4625,-22.2993 L27.4625,-34.8639 L30.4622,-34.8639 Z M27.4625,-3.37245e-07 L27.4625,-17.2055 L30.9149,-17.2055 L36.2917,-2.53869e-07 L42.4042,-1.96147e-07 L36.1785,-18.3941 C38.0273,-19.4128 39.3196,-20.7523 40.0554,-22.4125 C40.7912,-24.0727 41.159,-26.0913 41.159,-28.4684 C41.159,-36.3543 37.7632,-40.2972 30.9715,-40.2972 L21.6896,-40.2972 L21.6896,-3.9176e-07 L27.4625,-3.37245e-07 Z M48.8563,-14.0927 L51.6861,-28.6948 L51.7993,-28.6948 L54.6292,-14.0927 L48.8563,-14.0927 Z M46.1396,-1.60873e-07 L47.8375,-8.65937 L55.7045,-8.65937 L57.4024,-5.45151e-08 L63.1753,-7.10543e-15 L54.1764,-40.2972 L49.3656,-40.2972 L40.3667,-2.15388e-07 L46.1396,-1.60873e-07 Z " fill="#02c8a7" fill-opacity="1.00" />			<path d="M48.8563,-14.0927 L51.6861,-28.6948 L51.7993,-28.6948 L54.6292,-14.0927 L48.8563,-14.0927 Z M46.1396,-1.60873e-07 L47.8375,-8.65937 L55.7045,-8.65937 L57.4024,-5.45151e-08 L63.1753,-4.61853e-14 L54.1764,-40.2972 L49.3656,-40.2972 L40.3667,-2.15388e-07 L46.1396,-1.60873e-07 Z " fill="#71b7f3" fill-opacity="1.00" />			<path d="M8.48958,29.9926 L11.3194,15.3905 L11.4326,15.3905 L14.2625,29.9926 L8.48958,29.9926 Z M5.77291,44.0853 L7.47083,35.4259 L15.3378,35.4259 L17.0358,44.0853 L22.8087,44.0853 L13.8097,3.78809 L8.99895,3.78809 L-3.20669e-09,44.0853 L5.77291,44.0853 Z M35.3732,32.5961 L35.3732,34.577 C35.3732,35.3693 35.26,36.0296 35.0337,36.5579 C34.8073,37.0861 34.5243,37.5011 34.1847,37.803 C33.8074,38.1048 33.4018,38.3218 32.9679,38.4539 C32.5339,38.5859 32.1283,38.652 31.751,38.652 C30.4304,38.652 29.5154,38.2558 29.0061,37.4634 C28.4967,36.6711 28.242,35.69 28.242,34.5204 L28.242,13.919 C28.242,12.5607 28.4778,11.4381 28.9495,10.5515 C29.4211,9.66476 30.3738,9.22142 31.8076,9.22142 C32.9018,9.22142 33.7697,9.63646 34.4111,10.4666 C35.0525,11.2966 35.3732,12.2777 35.3732,13.4096 L35.3732,15.3339 L41.1462,15.3339 L41.1462,13.07 C41.1462,11.674 40.9103,10.3817 40.4387,9.19312 C39.967,8.00458 39.3162,6.9764 38.4861,6.10857 C36.7882,4.33519 34.5809,3.4485 31.8642,3.4485 C30.4682,3.4485 29.1947,3.68433 28.0439,4.15597 C26.8931,4.62761 25.9026,5.27848 25.0726,6.10857 C24.2425,6.93866 23.601,7.91968 23.1482,9.05163 C22.6955,10.1836 22.4691,11.4098 22.4691,12.7304 L22.4691,34.9165 C22.4691,36.7654 22.7615,38.2841 23.3463,39.4726 C23.9312,40.6612 24.6764,41.6327 25.5819,42.3874 C26.4875,43.142 27.5062,43.6702 28.6382,43.9721 C29.7701,44.2739 30.8832,44.4249 31.9774,44.4249 C33.2603,44.4249 34.4583,44.1702 35.5713,43.6608 C36.6844,43.1514 37.656,42.4628 38.4861,41.595 C39.3162,40.7272 39.967,39.7367 40.4387,38.6237 C40.9103,37.5106 41.1462,36.3315 41.1462,35.0863 L41.1462,32.5961 L35.3732,32.5961 Z M55.918,3.78809 L55.918,34.4638 C55.918,35.8976 55.5784,36.954 54.8993,37.6332 C54.2201,38.3124 53.3711,38.652 52.3524,38.652 C51.3336,38.652 50.4847,38.3124 49.8055,37.6332 C49.1264,36.954 48.7868,35.8976 48.7868,34.4638 L48.7868,3.78809 L43.0139,3.78809 L43.0139,35.0297 C43.0139,36.3503 43.2591,37.5672 43.7496,38.6803 C44.2401,39.7933 44.9193,40.7838 45.7871,41.6516 C46.6549,42.5194 47.6454,43.1986 48.7585,43.6891 C49.8716,44.1796 51.0695,44.4249 52.3524,44.4249 C53.6353,44.4249 54.8427,44.1796 55.9746,43.6891 C57.1066,43.1986 58.1064,42.5194 58.9743,41.6516 C59.8421,40.7838 60.5118,39.7933 60.9835,38.6803 C61.4551,37.5672 61.6909,36.3503 61.6909,35.0297 L61.6909,3.78809 L55.918,3.78809 Z M69.5013,29.9926 L72.3312,15.3905 L72.4444,15.3905 L75.2743,29.9926 L69.5013,29.9926 Z M66.7847,44.0853 L68.4826,35.4259 L76.3496,35.4259 L78.0475,44.0853 L83.8204,44.0853 L74.8215,3.78809 L70.0107,3.78809 L61.0118,44.0853 L66.7847,44.0853 Z M92.593,9.22142 C94.5928,9.22142 95.9511,9.74966 96.668,10.8061 C97.0076,11.3721 97.234,12.0418 97.3472,12.8153 C97.4604,13.5888 97.517,14.485 97.517,15.5037 C97.517,16.5225 97.4604,17.4186 97.3472,18.1921 C97.234,18.9656 97.0264,19.6164 96.7246,20.1447 C96.385,20.6729 95.9134,21.0785 95.3097,21.3615 C94.706,21.6445 93.8947,21.786 92.876,21.786 L89.5933,21.786 L89.5933,9.22142 L92.593,9.22142 Z M89.5933,44.0853 L89.5933,26.8797 L93.0458,26.8797 L98.4225,44.0853 L104.535,44.0853 L98.3093,25.6912 C100.158,24.6724 101.45,23.333 102.186,21.6728 C102.922,20.0126 103.29,17.994 103.29,15.6169 C103.29,7.73103 99.894,3.78809 93.1024,3.78809 L83.8204,3.78809 L83.8204,44.0853 L89.5933,44.0853 Z M111.044,44.0853 L111.044,3.78809 L105.271,3.78809 L105.271,44.0853 L111.044,44.0853 Z M113.477,34.577 C113.477,36.2749 113.76,37.7275 114.326,38.9349 C114.892,40.1423 115.647,41.1422 116.59,41.9346 C117.496,42.7647 118.524,43.3873 119.675,43.8023 C120.826,44.2173 121.986,44.4249 123.155,44.4249 C124.325,44.4249 125.485,44.2173 126.636,43.8023 C127.787,43.3873 128.834,42.7647 129.777,41.9346 C130.683,41.1422 131.419,40.1423 131.985,38.9349 C132.551,37.7275 132.834,36.2749 132.834,34.577 L132.834,13.2964 C132.834,11.674 132.551,10.2402 131.985,8.99503 C131.419,7.74989 130.683,6.71228 129.777,5.88218 C128.834,5.08982 127.787,4.48612 126.636,4.07107 C125.485,3.65603 124.325,3.4485 123.155,3.4485 C121.986,3.4485 120.826,3.65603 119.675,4.07107 C118.524,4.48612 117.496,5.08982 116.59,5.88218 C115.647,6.71228 114.892,7.74989 114.326,8.99503 C113.76,10.2402 113.477,11.674 113.477,13.2964 L113.477,34.577 Z M119.25,13.2964 C119.25,11.9004 119.637,10.8722 120.411,10.2119 C121.184,9.55157 122.099,9.22142 123.155,9.22142 C124.212,9.22142 125.127,9.55157 125.9,10.2119 C126.674,10.8722 127.061,11.9004 127.061,13.2964 L127.061,34.577 C127.061,35.973 126.674,37.0012 125.9,37.6615 C125.127,38.3218 124.212,38.652 123.155,38.652 C122.099,38.652 121.184,38.3218 120.411,37.6615 C119.637,37.0012 119.25,35.973 119.25,34.577 L119.25,13.2964 Z " fill="#02c8a7" fill-opacity="1.00" />			<path d="M8.48958,29.653 L11.3194,15.0509 L11.4326,15.0509 L14.2625,29.653 L8.48958,29.653 Z M5.77291,43.7457 L7.47083,35.0863 L15.3378,35.0863 L17.0358,43.7457 L22.8087,43.7457 L13.8097,3.4485 L8.99895,3.4485 L-1.59872e-14,43.7457 L5.77291,43.7457 Z " fill="#71b7f3" fill-opacity="1.00" />		</g>	</svg>