<?xml version="1.0" encoding="utf-8" ?>	<!-- Generator: Assembly 2.4 - http://assemblyapp.co -->	<svg version="1.1" xmlns="http://www.w3.org/2000/svg" xmlns:xlink="http://www.w3.org/1999/xlink" width="1000.00" height="1000.00" viewBox="0 0 128.0 128.0">		<g id="document" transform="scale(0.6766666666666667 0.6366666666666667) translate(90.0 100.0)">			<path d="M41.9406,83.7739 C60.9136,64.8008 60.9136,34.0395 41.9406,15.0665 C22.9676,-3.90656 -7.79376,-3.90656 -26.7668,15.0665 C-45.7398,34.0395 -45.7398,64.8008 -26.7668,83.7739 C-7.79376,102.747 22.9676,102.747 41.9406,83.7739 Z " fill="none" stroke-width="7.25" stroke="#71b7f3" stroke-linecap="square" stroke-linejoin="miter" />			<path d="M81.9233,10.9268 C100.896,-8.04627 100.896,-38.8076 81.9233,-57.7806 C62.9502,-76.7537 32.1889,-76.7537 13.2159,-57.7806 C-5.75714,-38.8076 -5.75714,-8.04626 13.2159,10.9268 C32.1889,29.8998 62.9503,29.8998 81.9233,10.9268 Z " fill="none" stroke-width="7.25" stroke="#02c8a7" stroke-linecap="square" stroke-linejoin="miter" />			<path d="M81.9233,60.4201 C100.896,41.4471 100.896,10.6857 81.9233,-8.2873 C62.9502,-27.2603 32.1889,-27.2603 13.2159,-8.2873 C-5.75714,10.6857 -5.75714,41.4471 13.2159,60.4201 C32.1889,79.3931 62.9503,79.3931 81.9233,60.4201 Z " fill="none" stroke-width="7.25" stroke="#02c8a7" stroke-linecap="square" stroke-linejoin="miter" />			<path d="M-2.7295,11.0525 C16.2435,-7.92055 16.2435,-38.6819 -2.72951,-57.6549 C-21.7025,-76.6279 -52.4639,-76.6279 -71.4369,-57.6549 C-90.4099,-38.6819 -90.4099,-7.92055 -71.4369,11.0525 C-52.4639,30.0255 -21.7025,30.0255 -2.7295,11.0525 Z " fill="none" stroke-width="7.25" stroke="#02c8a7" stroke-linecap="square" stroke-linejoin="miter" />			<path d="M40.934,-13.5325 C59.907,-32.5055 59.907,-63.2668 40.934,-82.2399 C21.961,-101.213 -8.80038,-101.213 -27.7734,-82.2399 C-46.7464,-63.2668 -46.7464,-32.5055 -27.7734,-13.5325 C-8.80038,5.44055 21.961,5.44055 40.934,-13.5325 Z " fill="none" stroke-width="7.25" stroke="#71b7f3" stroke-linecap="square" stroke-linejoin="miter" />			<path d="M-2.81218,58.9706 C16.1608,39.9976 16.1608,9.23626 -2.81218,-9.73676 C-21.7852,-28.7098 -52.5465,-28.7098 -71.5196,-9.73676 C-90.4926,9.23626 -90.4926,39.9976 -71.5196,58.9706 C-52.5465,77.9436 -21.7852,77.9436 -2.81218,58.9706 Z " fill="none" stroke-width="7.25" stroke="#02c8a7" stroke-linecap="square" stroke-linejoin="miter" />		</g>	</svg>